<svg xmlns="http://www.w3.org/2000/svg" width="70" height="70" viewBox="0 0 70 70" fill="none">
    <g clip-path="url(#clip0_233_152)">
        <path d="M69.9999 70H0V0.000114441H69.9999V70Z"/>
        <mask id="mask0_233_152" style="mask-type:luminance" maskUnits="userSpaceOnUse" x="8" y="8" width="54" height="54">
            <path d="M31.2768 61.4151C30.4492 61.4151 29.6343 61.3819 28.8343 61.3157C25.8219 61.0664 19.7607 60.5647 15.0282 56.0893C7.61381 49.0777 7.17944 35.83 11.9947 25.4447C13.4164 29.8589 16.7393 31.0776 19.0766 32.243L18.289 42.7523L50.7138 49.987L51.0487 20.0674L25.4238 28.9519C25.8066 25.9421 25.8494 22.8732 25.1087 20.4613C24.3481 17.9859 22.4136 16.1698 20.2068 14.853C23.7919 11.9319 29.4804 8.58491 36.7606 8.58491C36.8406 8.58491 36.9206 8.58529 37.0009 8.58604C45.8492 8.67566 52.0596 13.6738 52.8149 14.2964C53.7689 15.0832 55.8728 16.9525 57.7692 19.9179C62.2249 26.8857 62.6166 36.6128 59.283 44.4045C54.3353 55.9691 41.8622 61.4151 31.2768 61.4151Z" fill="white"/>
        </mask>
        <g mask="url(#mask0_233_152)">
            <path d="M31.2768 61.4151C30.4493 61.4151 29.6344 61.3819 28.8343 61.3156C25.8219 61.0664 19.7608 60.5647 15.0282 56.0892C7.61381 49.0777 7.17944 35.83 11.9947 25.4447C13.4164 29.859 16.7393 31.0775 19.0766 32.2428L18.289 42.7523L50.714 49.987L51.0486 20.0673L25.4238 28.9517C25.8066 25.9419 25.8494 22.8733 25.1087 20.4612C24.3481 17.9856 22.4136 16.1699 20.2068 14.8529C23.7919 11.9318 29.4804 8.58483 36.7606 8.58483C36.8406 8.58483 36.9206 8.5852 37.001 8.58596C45.8493 8.67537 52.0596 13.6736 52.8149 14.2965C53.769 15.083 55.8729 16.9523 57.7694 19.9179C62.2251 26.8855 62.6167 36.6128 59.2829 44.4045C54.3352 55.969 41.8624 61.4151 31.2768 61.4151Z" fill="url(#paint0_linear_233_152)"/>
        </g>
        <path d="M22.9484 43.1583C22.9365 43.1583 22.9246 43.1551 22.9136 43.1485C22.8825 43.1293 22.8727 43.0885 22.8919 43.0572C22.9384 42.9815 22.9863 42.9062 23.0351 42.8317C23.0553 42.8011 23.0965 42.7926 23.127 42.8126C23.1578 42.8328 23.1663 42.874 23.1461 42.9045C23.0978 42.9779 23.0508 43.0521 23.005 43.1266C22.9923 43.147 22.9706 43.1583 22.9484 43.1583Z" fill="#91B3FA"/>
        <path d="M31.2007 39.0084C31.1987 39.0084 31.1968 39.0083 31.1949 39.0081C31.0262 38.9935 30.8545 38.9832 30.6848 38.9784C30.6482 38.9772 30.6195 38.9468 30.6207 38.91C30.6216 38.8743 30.6511 38.8456 30.6868 38.8456H30.6889C30.861 38.8509 31.0353 38.8609 31.2064 38.876C31.243 38.8793 31.2701 38.9114 31.2667 38.948C31.2636 38.9825 31.2346 39.0084 31.2007 39.0084ZM29.3382 39.0423C29.3052 39.0423 29.2767 39.0177 29.2724 38.9842C29.2678 38.948 29.2937 38.9148 29.3301 38.9102C29.5007 38.8889 29.6745 38.8724 29.8461 38.8609C29.8825 38.8587 29.9143 38.8863 29.9167 38.9229C29.9191 38.9595 29.8916 38.9909 29.855 38.9935C29.6858 39.0045 29.5146 39.0208 29.3463 39.0419C29.3435 39.0421 29.3408 39.0423 29.3382 39.0423ZM32.5327 39.2288C32.5274 39.2288 32.5222 39.2281 32.5167 39.2269C32.3522 39.1864 32.1842 39.1505 32.0173 39.1197C31.9812 39.1129 31.9573 39.0785 31.964 39.0426C31.9707 39.0064 32.0051 38.9827 32.0413 38.9892C32.2108 39.0203 32.3814 39.0569 32.5482 39.0979C32.5837 39.1067 32.6057 39.1426 32.5971 39.1781C32.5894 39.2085 32.5624 39.2288 32.5327 39.2288ZM28.015 39.3123C27.9863 39.3123 27.9597 39.2932 27.9514 39.2642C27.9413 39.229 27.9617 39.1924 27.9971 39.1824C28.1625 39.135 28.3317 39.0919 28.4997 39.0543C28.5354 39.0464 28.5711 39.0689 28.579 39.1046C28.5871 39.1405 28.5644 39.1759 28.5287 39.1838C28.3631 39.2209 28.1965 39.263 28.0335 39.3099C28.0275 39.3116 28.021 39.3123 28.015 39.3123ZM33.8152 39.6498C33.8066 39.6498 33.7979 39.6482 33.7896 39.6446C33.6337 39.5797 33.4731 39.5184 33.3125 39.4624C33.2778 39.4504 33.2596 39.4126 33.2716 39.3779C33.2838 39.3435 33.3214 39.325 33.3561 39.3372C33.5193 39.394 33.6823 39.4562 33.8405 39.522C33.8745 39.5364 33.8903 39.5749 33.8764 39.6089C33.8659 39.6343 33.841 39.6498 33.8152 39.6498ZM26.7495 39.7832C26.7247 39.7832 26.7005 39.7688 26.6895 39.7446C26.6739 39.7113 26.6883 39.6719 26.7218 39.6565C26.8778 39.5842 27.0382 39.5158 27.1986 39.4526C27.2328 39.4392 27.2713 39.456 27.2848 39.4899C27.2982 39.5242 27.2814 39.5627 27.2474 39.5761C27.089 39.6381 26.9312 39.7056 26.7773 39.7769C26.7682 39.7812 26.7589 39.7832 26.7495 39.7832ZM35.0177 40.2623C35.006 40.2623 34.994 40.2592 34.9832 40.2528C34.8382 40.1642 34.6891 40.079 34.5397 39.9993C34.5074 39.9821 34.4952 39.9418 34.5122 39.9095C34.5294 39.8772 34.5696 39.865 34.6022 39.882C34.7537 39.9632 34.9052 40.0496 35.0524 40.1396C35.0835 40.1585 35.0936 40.1994 35.0744 40.2305C35.062 40.2511 35.0402 40.2623 35.0177 40.2623ZM25.5714 40.4435C25.5501 40.4435 25.5288 40.433 25.5161 40.4139C25.4958 40.3832 25.5042 40.3421 25.5346 40.3219C25.6782 40.2262 25.8263 40.1336 25.9747 40.0469C26.0063 40.0283 26.0468 40.039 26.0655 40.0706C26.0839 40.1022 26.0731 40.1429 26.0418 40.1613C25.8953 40.2468 25.7495 40.3382 25.608 40.4323C25.5968 40.44 25.5841 40.4435 25.5714 40.4435ZM36.1116 41.053C36.0963 41.053 36.0809 41.0479 36.0685 41.0372C35.9388 40.9273 35.8042 40.8201 35.6695 40.7186C35.6403 40.6965 35.6341 40.6549 35.6563 40.6257C35.6783 40.5965 35.7197 40.5905 35.7489 40.6125C35.8861 40.7155 36.0225 40.8244 36.1544 40.9361C36.1822 40.9598 36.1858 41.0015 36.1621 41.0297C36.1489 41.0451 36.1302 41.053 36.1116 41.053ZM24.5075 41.2751C24.4895 41.2751 24.4718 41.2677 24.4584 41.2535C24.4338 41.2262 24.4359 41.1844 24.463 41.1597C24.5903 41.0436 24.7224 40.9299 24.856 40.8215C24.8847 40.7985 24.9264 40.8028 24.9493 40.8311C24.9726 40.8595 24.9682 40.9014 24.9395 40.9247C24.8079 41.0314 24.6777 41.1434 24.5522 41.2578C24.5396 41.2693 24.5235 41.2751 24.5075 41.2751ZM37.0707 42.003C37.052 42.003 37.0336 41.9951 37.0204 41.9797C36.9091 41.8512 36.7926 41.7248 36.6748 41.6037C36.6494 41.5774 36.6499 41.5355 36.6762 41.5099C36.7026 41.4843 36.7444 41.4848 36.7701 41.5111C36.8897 41.6341 37.0075 41.7624 37.1207 41.8931C37.1446 41.9206 37.1418 41.9628 37.1143 41.9867C37.1016 41.9975 37.086 42.003 37.0707 42.003ZM23.5829 42.2586C23.5681 42.2586 23.5534 42.2538 23.5413 42.244C23.5128 42.221 23.5083 42.1794 23.5311 42.1509C23.6391 42.0164 23.7525 41.8838 23.8679 41.7562C23.8927 41.7291 23.9345 41.7272 23.9617 41.7516C23.9888 41.7765 23.9909 41.8184 23.9663 41.8455C23.8525 41.9709 23.7408 42.1018 23.6345 42.2337C23.6215 42.2502 23.6023 42.2586 23.5829 42.2586ZM37.8752 43.0875C37.8529 43.0875 37.8316 43.0765 37.8189 43.0564C37.7284 42.913 37.6329 42.7701 37.5341 42.632C37.5128 42.6023 37.5197 42.5609 37.5496 42.5396C37.5793 42.5183 37.6207 42.5252 37.642 42.5552C37.7421 42.6954 37.8395 42.84 37.9312 42.9858C37.9506 43.0166 37.9412 43.0576 37.9104 43.0772C37.8993 43.0841 37.8871 43.0875 37.8752 43.0875ZM38.5044 44.2819C38.4788 44.2819 38.4544 44.2668 38.4436 44.2419C38.3761 44.0859 38.3034 43.9303 38.2273 43.779C38.2108 43.7462 38.2239 43.7065 38.2567 43.69C38.2895 43.6734 38.3292 43.6866 38.3457 43.7194C38.4233 43.8728 38.497 44.031 38.5652 44.1893C38.5798 44.2228 38.5643 44.262 38.5308 44.2764C38.5222 44.28 38.5133 44.2819 38.5044 44.2819ZM38.942 45.5591C38.9125 45.5591 38.8855 45.5392 38.8778 45.5093C38.8355 45.3449 38.7876 45.1797 38.7357 45.0186C38.7244 44.9837 38.7436 44.9464 38.7785 44.9351C38.8132 44.9241 38.8506 44.9432 38.8618 44.978C38.9147 45.1414 38.9633 45.3092 39.0061 45.4761C39.0155 45.5117 38.9942 45.5479 38.9587 45.557C38.953 45.5584 38.9475 45.5591 38.942 45.5591Z" fill="#91B3FA"/>
        <path d="M39.15 46.6434C39.1171 46.6434 39.0884 46.6191 39.0843 46.5855C39.0733 46.4985 39.061 46.4117 39.047 46.3249C39.0415 46.2889 39.0663 46.2549 39.1024 46.2491C39.1382 46.2432 39.1726 46.2681 39.1782 46.3043C39.1921 46.3923 39.2046 46.4806 39.2157 46.5689C39.2205 46.6051 39.1948 46.6383 39.1584 46.643C39.1556 46.6434 39.1529 46.6434 39.15 46.6434Z" fill="#91B3FA"/>
        <path d="M37.3443 53.1892C37.3302 53.1892 37.3157 53.1845 37.3035 53.1751C37.2747 53.1525 37.2696 53.1107 37.2922 53.0819C37.3466 53.0128 37.4001 52.943 37.452 52.8726C37.4739 52.8432 37.5154 52.8368 37.5447 52.8587C37.5742 52.8804 37.5804 52.9219 37.5587 52.9513C37.5059 53.023 37.4517 53.0938 37.3966 53.164C37.3835 53.1806 37.3641 53.1892 37.3443 53.1892Z" fill="#91B3FA"/>
        <path d="M21.9732 50.1324C21.9441 50.1324 21.9175 50.1132 21.9094 50.0839C21.8605 49.9096 21.8166 49.7313 21.7787 49.5545C21.7711 49.5186 21.7939 49.4834 21.8298 49.4758C21.8653 49.4679 21.9007 49.4909 21.9085 49.5268C21.9456 49.7009 21.989 49.8764 22.0372 50.0483C22.047 50.0834 22.0264 50.12 21.9911 50.13C21.9851 50.1317 21.979 50.1324 21.9732 50.1324ZM22.4658 51.4636C22.4409 51.4636 22.417 51.4494 22.4056 51.4253C22.3292 51.2609 22.257 51.0923 22.1909 50.9239C22.1775 50.89 22.1943 50.8513 22.2285 50.8381C22.2624 50.8247 22.3011 50.8415 22.3143 50.8756C22.3794 51.0413 22.4506 51.2073 22.526 51.3692C22.5415 51.4024 22.527 51.4419 22.4938 51.4573C22.4847 51.4615 22.4753 51.4636 22.4658 51.4636ZM23.1673 52.6973C23.1462 52.6973 23.1254 52.6873 23.1126 52.6683C23.0106 52.5185 22.9119 52.3638 22.8196 52.2085C22.8009 52.1769 22.8113 52.1362 22.8427 52.1175C22.8743 52.0988 22.915 52.109 22.9336 52.1407C23.0244 52.2936 23.1216 52.446 23.2219 52.5938C23.2427 52.624 23.2348 52.6653 23.2048 52.6858C23.1932 52.6937 23.1801 52.6973 23.1673 52.6973ZM24.0571 53.8032C24.0394 53.8032 24.0218 53.7964 24.0089 53.7824C23.8851 53.6517 23.7632 53.5145 23.6466 53.3751C23.6229 53.3471 23.6267 53.3053 23.655 53.2817C23.6832 53.2583 23.7248 53.2621 23.7483 53.29C23.8631 53.4275 23.9834 53.5624 24.1052 53.6913C24.1303 53.7179 24.1292 53.76 24.1025 53.7851C24.0898 53.7972 24.0733 53.8032 24.0571 53.8032ZM36.3792 54.2296C36.3613 54.2296 36.3435 54.2224 36.3304 54.2081C36.3055 54.1811 36.3073 54.1392 36.3342 54.1145C36.4658 53.9939 36.595 53.8677 36.7189 53.7394C36.7444 53.7132 36.7865 53.7124 36.8129 53.7377C36.8391 53.7632 36.8398 53.8053 36.8145 53.8317C36.6888 53.9619 36.5575 54.09 36.4239 54.2122C36.4113 54.224 36.3952 54.2296 36.3792 54.2296ZM25.1119 54.7523C25.0978 54.7523 25.0838 54.7479 25.0716 54.7387C24.9277 54.6289 24.7855 54.5134 24.6488 54.3949C24.621 54.3709 24.6178 54.329 24.642 54.3015C24.6659 54.2736 24.7077 54.2707 24.7355 54.2947C24.8703 54.4111 25.0104 54.5251 25.1521 54.6332C25.1812 54.6555 25.1867 54.697 25.1647 54.7262C25.1516 54.7432 25.132 54.7523 25.1119 54.7523ZM35.2593 55.103C35.2376 55.103 35.2166 55.0924 35.2037 55.0732C35.1838 55.0424 35.192 55.0013 35.2229 54.9813C35.3714 54.8832 35.5195 54.7792 35.6625 54.6721C35.6917 54.65 35.7335 54.656 35.7552 54.6853C35.7773 54.7147 35.7712 54.7562 35.7421 54.7781C35.597 54.887 35.4467 54.9924 35.2957 55.0921C35.2846 55.0994 35.272 55.103 35.2593 55.103ZM26.3063 55.5177C26.2959 55.5177 26.2851 55.5153 26.2754 55.51C26.1156 55.4251 25.9565 55.3339 25.8021 55.2394C25.7707 55.2202 25.7612 55.1794 25.7802 55.1481C25.7994 55.1168 25.8403 55.1071 25.8715 55.1262C26.0234 55.2196 26.1802 55.3092 26.3375 55.3928C26.3698 55.41 26.3823 55.4502 26.3649 55.4824C26.3531 55.5049 26.3303 55.5177 26.3063 55.5177ZM34.0144 55.7856C33.9891 55.7856 33.9649 55.7709 33.9539 55.7462C33.939 55.7128 33.9539 55.6736 33.9873 55.6587C34.1503 55.5858 34.3128 55.507 34.4708 55.4243C34.5033 55.4071 34.5433 55.4198 34.5603 55.4523C34.5774 55.4847 34.565 55.5249 34.5325 55.5419C34.372 55.6258 34.2068 55.7058 34.0416 55.7798C34.0325 55.7837 34.0235 55.7856 34.0144 55.7856ZM27.6093 56.08C27.6023 56.08 27.5948 56.0789 27.5878 56.0764C27.4165 56.0185 27.2447 55.9543 27.0773 55.8858C27.0431 55.8719 27.0271 55.8332 27.0409 55.7992C27.0547 55.7655 27.0933 55.7492 27.1274 55.763C27.2924 55.8306 27.4617 55.8936 27.6305 55.9507C27.6653 55.9626 27.6839 56.0002 27.6721 56.0349C27.6626 56.0624 27.6369 56.08 27.6093 56.08ZM32.6756 56.2573C32.6459 56.2573 32.6193 56.2377 32.6116 56.2079C32.6021 56.1724 32.6233 56.1362 32.6586 56.1268C32.831 56.0815 33.0046 56.03 33.1737 55.9741C33.2089 55.9624 33.246 55.9815 33.2575 56.0162C33.2691 56.0511 33.2501 56.0885 33.2155 56.1C33.0435 56.1568 32.8674 56.209 32.6925 56.2551C32.6869 56.2566 32.6812 56.2573 32.6756 56.2573ZM28.9859 56.4253C28.9821 56.4253 28.9785 56.4251 28.9746 56.4245C28.7961 56.3945 28.6159 56.3589 28.4399 56.3183C28.4044 56.31 28.382 56.2743 28.3904 56.2387C28.3987 56.203 28.4342 56.1809 28.4697 56.189C28.6433 56.229 28.8205 56.2641 28.9965 56.2936C29.0327 56.2996 29.0571 56.3337 29.0512 56.37C29.0456 56.4024 29.0178 56.4253 28.9859 56.4253ZM31.2781 56.5062C31.2442 56.5062 31.2153 56.4804 31.2121 56.446C31.2087 56.4096 31.2352 56.3773 31.2718 56.3738C31.4492 56.3568 31.6284 56.3341 31.8047 56.3062C31.8407 56.3007 31.8748 56.3253 31.8807 56.3615C31.8863 56.3975 31.8617 56.4317 31.8255 56.4373C31.6465 56.4656 31.4646 56.4887 31.2842 56.5058C31.2822 56.506 31.2802 56.5062 31.2781 56.5062ZM30.3998 56.5458H30.3994C30.2186 56.5451 30.0355 56.5387 29.8547 56.5268C29.8181 56.5243 29.7903 56.4926 29.7928 56.4562C29.7953 56.4196 29.8274 56.3921 29.8633 56.3943C30.0414 56.406 30.222 56.4124 30.4001 56.4132C30.4367 56.4134 30.4663 56.4432 30.4663 56.48C30.4661 56.5164 30.4362 56.5458 30.3998 56.5458Z" fill="#91B3FA"/>
        <path d="M21.7025 48.736C21.6691 48.736 21.6404 48.7109 21.6366 48.677C21.6268 48.5885 21.6183 48.4998 21.6112 48.4111C21.6083 48.3745 21.6355 48.3426 21.6719 48.3396C21.7098 48.3366 21.7406 48.364 21.7434 48.4004C21.7504 48.4877 21.7587 48.5751 21.7685 48.6625C21.7725 48.6989 21.7463 48.7315 21.7098 48.7357C21.7072 48.7359 21.7047 48.736 21.7025 48.736Z" fill="#91B3FA"/>
        <path d="M23.6925 47.3883C23.6856 47.4328 23.7081 47.4767 23.7479 47.4977L24.8836 48.0951C24.9303 48.6926 25.0726 49.2869 25.3145 49.8543L24.5846 50.9088C24.559 50.9458 24.5597 50.9949 24.5862 51.0311L25.4973 52.2721C25.5238 52.3083 25.5705 52.3237 25.6135 52.3104L26.8383 51.93C27.3071 52.3307 27.8315 52.6447 28.3877 52.8681L28.6172 54.1307C28.6252 54.1751 28.6604 54.2092 28.7051 54.2162L30.2266 54.4494C30.271 54.4562 30.3149 54.4341 30.3359 54.3943L30.9333 53.2585C31.5307 53.2119 32.1252 53.0696 32.6926 52.8275L33.7471 53.5575C33.784 53.5832 33.8332 53.5824 33.8695 53.5558L35.1103 52.6449C35.1467 52.6183 35.162 52.5715 35.1485 52.5287L34.7683 51.3037C35.1689 50.8351 35.483 50.3105 35.7063 49.7545L36.9689 49.5249C37.0132 49.5168 37.0476 49.4815 37.0544 49.4371L37.2876 47.9154C37.2944 47.8711 37.2725 47.8271 37.2327 47.8062L36.0967 47.2088C36.05 46.6114 35.9079 46.017 35.6658 45.4495L36.3957 44.395C36.4213 44.3582 36.4207 44.3087 36.3941 44.2726L35.483 43.0316C35.4565 42.9954 35.4098 42.9799 35.3668 42.9934L34.142 43.3739C33.6732 42.973 33.1488 42.6591 32.5928 42.4356L32.3631 41.173C32.3551 41.1289 32.3196 41.0946 32.2755 41.0877L30.7537 40.8543C30.7093 40.8475 30.6654 40.8699 30.6444 40.9097L30.047 42.0452C29.4496 42.0921 28.8552 42.2342 28.2877 42.4763L27.2332 41.7462C27.1964 41.7208 27.1472 41.7212 27.1108 41.748L25.87 42.6591C25.8336 42.6856 25.8183 42.7323 25.8316 42.7753L26.2121 43.9999C25.8112 44.4689 25.4975 44.9931 25.2737 45.5493L24.0112 45.779C23.9671 45.787 23.9328 45.8222 23.9259 45.8669L23.6925 47.3883Z" fill="#91B3FA"/>
        <path d="M30.4912 46.3851C30.126 46.3851 29.7633 46.5419 29.5129 46.8449C29.2972 47.1059 29.1964 47.4352 29.2286 47.7721C29.2607 48.1093 29.4222 48.4134 29.6831 48.6291C30.2219 49.0742 31.0224 48.9977 31.4675 48.4588C31.6829 48.1978 31.784 47.8685 31.7518 47.5315C31.7198 47.1944 31.5583 46.89 31.2971 46.6746C31.0614 46.4799 30.7755 46.3851 30.4912 46.3851ZM30.4888 49.1178C30.1599 49.1178 29.8294 49.0079 29.5565 48.7826C29.2545 48.5332 29.0676 48.1811 29.0304 47.7912C28.9931 47.4012 29.11 47.0201 29.3595 46.7183C29.8742 46.0947 30.8002 46.0064 31.4239 46.5211C31.7259 46.7705 31.9127 47.1226 31.95 47.5125C31.9871 47.9026 31.8703 48.2835 31.6209 48.5855C31.3313 48.9362 30.9117 49.1178 30.4888 49.1178Z" fill="#BDD0FB"/>
        <path d="M30.5308 51.4691C30.3361 51.4691 30.1406 51.4541 29.9447 51.4241C28.9376 51.2696 28.0512 50.7324 27.4484 49.9111C27.3243 49.7424 27.2143 49.5638 27.12 49.3781C27.1176 49.374 27.1157 49.3696 27.1136 49.3655C27.1119 49.3621 27.1103 49.3589 27.1086 49.3555C27.1067 49.3515 27.1046 49.3475 27.1027 49.3434C27.0966 49.3313 27.0907 49.3192 27.0848 49.3072C27.0692 49.2749 27.0542 49.2423 27.0395 49.2096L27.2211 49.1283C27.3255 49.3617 27.4559 49.5855 27.6087 49.7934C28.1799 50.5719 29.0204 51.0811 29.9749 51.2274C30.9295 51.3738 31.8835 51.1396 32.6619 50.5683C33.6258 49.8607 34.1366 48.7619 34.1364 47.6489C34.1362 46.9065 33.9089 46.1579 33.4368 45.5148C32.8654 44.7367 32.0251 44.2273 31.0706 44.0809C30.1162 43.9347 29.162 44.1688 28.3836 44.7402C27.8551 45.1278 27.4427 45.6505 27.1903 46.2514L27.0068 46.1745C27.2731 45.5403 27.7083 44.9888 28.2657 44.5797C29.087 43.9769 30.0937 43.7296 31.1008 43.8844C32.1077 44.0386 32.9943 44.5759 33.5971 45.3973C34.0951 46.0755 34.335 46.8655 34.3352 47.6487C34.3355 48.8228 33.7966 49.9821 32.7796 50.7287C32.1182 51.2142 31.3363 51.4691 30.5308 51.4691Z" fill="#BDD0FB"/>
        <path d="M39.1341 52.2151C39.1226 52.2151 39.1105 52.2118 39.0996 52.2052C39.0685 52.186 39.0586 52.1452 39.0779 52.1139C39.1252 52.0369 39.1766 51.9614 39.2312 51.8898C39.2532 51.8605 39.2947 51.8547 39.3239 51.8767C39.3534 51.899 39.3589 51.9405 39.337 51.9698C39.2851 52.0383 39.236 52.1101 39.1909 52.1834C39.1783 52.2037 39.1566 52.2151 39.1341 52.2151Z" fill="#91B3FA"/>
        <path d="M41.1419 50.9179C41.109 50.9179 41.0804 50.8936 41.0761 50.86C41.0715 50.8238 41.0971 50.7905 41.1335 50.7859C41.3086 50.7636 41.4885 50.7575 41.6635 50.7681C41.7002 50.7704 41.7282 50.8017 41.7258 50.8383C41.7237 50.8749 41.6926 50.903 41.6557 50.9006C41.489 50.8906 41.3172 50.8962 41.1502 50.9175C41.1475 50.9177 41.1446 50.9179 41.1419 50.9179ZM42.946 51.3049C42.9342 51.3049 42.922 51.3019 42.9115 51.2951C42.7677 51.207 42.6151 51.1321 42.4576 51.0723C42.4233 51.0592 42.406 51.0209 42.419 50.9866C42.4322 50.9525 42.4705 50.9351 42.5045 50.9481C42.6701 51.0109 42.8303 51.0896 42.9808 51.1821C43.0118 51.2013 43.0218 51.2421 43.0024 51.2732C42.99 51.2938 42.9681 51.3049 42.946 51.3049ZM39.8866 51.4105C39.8658 51.4105 39.8456 51.4009 39.8327 51.3828C39.8113 51.353 39.8184 51.3115 39.848 51.2904C39.9923 51.1872 40.1466 51.0975 40.3066 51.0234C40.34 51.0079 40.3794 51.0226 40.3947 51.0558C40.4101 51.089 40.3956 51.1285 40.3624 51.144C40.2097 51.2143 40.0627 51.3 39.9252 51.3981C39.9136 51.4066 39.9001 51.4105 39.8866 51.4105ZM43.8887 52.2694C43.866 52.2694 43.8436 52.2577 43.8315 52.2366C43.7692 52.1308 43.6993 52.0281 43.6233 51.9311C43.595 51.8949 43.5658 51.8598 43.5362 51.8256C43.5124 51.7979 43.5151 51.756 43.5429 51.7321C43.5704 51.7081 43.6125 51.7109 43.6365 51.7387C43.6675 51.7745 43.6983 51.8113 43.7279 51.8492C43.8075 51.9507 43.8809 52.0587 43.9456 52.1696C43.9642 52.2011 43.9537 52.2419 43.9221 52.2604C43.9116 52.2666 43.9 52.2694 43.8887 52.2694Z" fill="#91B3FA"/>
        <path d="M44.244 53.3141C44.2111 53.3141 44.1826 53.2898 44.1782 53.2562C44.1674 53.1711 44.1524 53.0852 44.1334 53.0015C44.1252 52.9656 44.1478 52.9301 44.1834 52.922C44.2193 52.9141 44.2546 52.9364 44.2628 52.972C44.2826 53.0601 44.2987 53.1501 44.3098 53.2394C44.3144 53.2758 44.2889 53.309 44.2525 53.3137C44.2495 53.3141 44.247 53.3141 44.244 53.3141Z" fill="#91B3FA"/>
        <path d="M43.5574 55.5176C43.5415 55.5176 43.5257 55.5119 43.5131 55.5006C43.4859 55.4761 43.4838 55.4342 43.5082 55.4068C43.5657 55.3431 43.6208 55.2757 43.6719 55.2065C43.6936 55.177 43.735 55.1706 43.7646 55.1925C43.7941 55.2142 43.8003 55.2557 43.7786 55.2853C43.7248 55.358 43.667 55.4287 43.6068 55.4957C43.5937 55.5102 43.5757 55.5176 43.5574 55.5176Z" fill="#91B3FA"/>
        <path d="M39.308 55.3672C39.2883 55.3672 39.2687 55.3585 39.2555 55.3417C39.1485 55.204 39.0538 55.0563 38.9741 54.9025C38.9572 54.8698 38.9701 54.8299 39.0026 54.8131C39.0353 54.7961 39.0749 54.8089 39.092 54.8414C39.1677 54.988 39.2582 55.1289 39.3603 55.2602C39.3827 55.2891 39.3777 55.3308 39.3487 55.3532C39.3365 55.3627 39.3223 55.3672 39.308 55.3672ZM40.3481 56.1893C40.3391 56.1893 40.3299 56.1874 40.3209 56.1834C40.1624 56.1115 40.0102 56.0245 39.8678 55.9249C39.838 55.904 39.8306 55.8625 39.8517 55.8325C39.8728 55.8025 39.9139 55.7953 39.944 55.8162C40.0796 55.9111 40.2247 55.994 40.3758 56.0625C40.409 56.0777 40.4238 56.117 40.4088 56.1504C40.3977 56.1749 40.3734 56.1893 40.3481 56.1893ZM42.4607 56.2644C42.4338 56.2644 42.4085 56.2478 42.3984 56.2212C42.3858 56.1868 42.4032 56.1487 42.4375 56.1359C42.5928 56.0781 42.7432 56.0055 42.8856 55.92C42.9168 55.9011 42.9576 55.9114 42.9764 55.9429C42.9954 55.9742 42.9851 56.0149 42.9539 56.0338C42.8049 56.1234 42.6464 56.1996 42.4836 56.2602C42.476 56.263 42.4683 56.2644 42.4607 56.2644ZM41.4971 56.4372C41.3766 56.4372 41.2544 56.4295 41.1347 56.4142C41.0983 56.4095 41.0724 56.3762 41.0772 56.3398C41.0817 56.3036 41.1149 56.2778 41.1513 56.2827C41.3159 56.3036 41.4829 56.3096 41.6483 56.3004C41.6833 56.2985 41.716 56.3263 41.7182 56.3629C41.7203 56.3994 41.6923 56.4308 41.6556 56.4328C41.6029 56.4359 41.5499 56.4372 41.4971 56.4372Z" fill="#91B3FA"/>
        <path d="M38.7669 54.154C38.7355 54.154 38.7076 54.1314 38.7019 54.0991C38.6861 54.0106 38.6745 53.9201 38.6671 53.8301C38.6642 53.7935 38.6914 53.7616 38.7278 53.7586C38.7638 53.7557 38.7962 53.7827 38.7996 53.8193C38.8062 53.9052 38.8174 53.9916 38.8324 54.0761C38.8389 54.1121 38.8148 54.1465 38.7786 54.1529C38.7748 54.1536 38.771 54.154 38.7669 54.154Z" fill="#91B3FA"/>
        <path d="M39.3692 53.5037C39.3668 53.5177 39.3738 53.5315 39.3864 53.5383L39.7445 53.7265C39.7592 53.9151 39.8042 54.1024 39.8806 54.2815L39.6505 54.6139C39.6424 54.6256 39.6424 54.6411 39.6508 54.6526L39.9382 55.0439C39.9467 55.0554 39.9615 55.0601 39.9748 55.056L40.3613 54.936C40.5089 55.0624 40.6745 55.1615 40.8496 55.2318L40.9222 55.6302C40.9249 55.6441 40.9359 55.6549 40.9498 55.6571L41.4298 55.7305C41.444 55.7328 41.4576 55.7258 41.4643 55.7132L41.6526 55.355C41.8409 55.3403 42.0287 55.2954 42.2073 55.219L42.54 55.4494C42.5515 55.4573 42.5673 55.4571 42.5786 55.4488L42.9699 55.1615C42.9814 55.1532 42.9862 55.1383 42.9819 55.1249L42.8619 54.7386C42.9884 54.5907 43.0875 54.4252 43.1579 54.25L43.5562 54.1775C43.5701 54.1751 43.5811 54.1639 43.5833 54.1498L43.6566 53.67C43.6588 53.656 43.6518 53.642 43.6392 53.6354L43.2811 53.4471C43.2664 53.2586 43.2214 53.0711 43.1453 52.8922L43.3754 52.5598C43.3834 52.5481 43.3834 52.5326 43.3749 52.5211L43.0875 52.1298C43.0792 52.1182 43.0644 52.1133 43.0508 52.1177L42.6645 52.2377C42.5167 52.1113 42.3514 52.0122 42.176 51.9418L42.1034 51.5436C42.101 51.5296 42.09 51.5188 42.0758 51.5166L41.5958 51.443C41.5819 51.4409 41.5683 51.4479 41.5616 51.4605L41.373 51.8186C41.1847 51.8333 40.9972 51.8783 40.8183 51.9545L40.4859 51.7243C40.4741 51.7162 40.4586 51.7164 40.4471 51.7249L40.0557 52.0122C40.0442 52.0205 40.0397 52.0352 40.0437 52.0488L40.1637 52.4351C40.0373 52.583 39.9381 52.7482 39.8677 52.9237L39.4694 52.9962C39.4555 52.9986 39.4448 53.0098 39.4426 53.0237L39.3692 53.5037Z" fill="#91B3FA"/>
        <path d="M41.3018 53.8426C41.3702 53.899 41.4569 53.9253 41.5446 53.917C41.6326 53.9085 41.7123 53.8662 41.7685 53.7979C41.825 53.7296 41.8514 53.6436 41.8429 53.5553C41.8346 53.4671 41.7925 53.3875 41.7242 53.3311C41.583 53.2147 41.3735 53.2347 41.2572 53.3756C41.1408 53.5166 41.1609 53.7262 41.3018 53.8426ZM41.5123 54.1171C41.3934 54.1171 41.2737 54.0775 41.1751 53.996C40.9496 53.8096 40.9174 53.4747 41.1037 53.249C41.2902 53.0234 41.6251 52.9915 41.8506 53.1777C41.96 53.2679 42.0276 53.3952 42.041 53.5364C42.0547 53.6775 42.0121 53.8154 41.9221 53.9247C41.8173 54.0515 41.6653 54.1171 41.5123 54.1171Z" fill="#91B3FA"/>
        <path d="M41.5246 54.8581C41.1334 54.8581 40.7472 54.6785 40.4983 54.3397C40.4952 54.3353 40.492 54.3308 40.4889 54.3264C40.4435 54.263 40.4041 54.1957 40.3715 54.1259L40.3694 54.1213L40.3679 54.1181L40.3673 54.117C40.3655 54.1134 40.3642 54.1096 40.3623 54.106L40.544 54.0247C40.5747 54.0938 40.6136 54.1602 40.6588 54.2219C40.6632 54.2278 40.6674 54.2334 40.6716 54.2389C40.9313 54.5783 41.3574 54.7206 41.752 54.6347C41.8924 54.6044 42.0287 54.5449 42.1524 54.4553L42.1573 54.4517C42.3881 54.2823 42.5391 54.033 42.5827 53.75C42.5911 53.6951 42.5953 53.64 42.5953 53.5855C42.5953 53.3591 42.5236 53.1393 42.3871 52.9532C42.0374 52.4768 41.3653 52.3738 40.8887 52.7234C40.732 52.8385 40.6097 52.9934 40.5348 53.1715L40.3513 53.0946C40.4401 52.8832 40.5852 52.6995 40.7709 52.563C41.3358 52.1483 42.1329 52.2706 42.5475 52.8355C42.7095 53.0559 42.7943 53.3166 42.7943 53.5851C42.7943 53.6498 42.7893 53.7149 42.7793 53.7802C42.7278 54.1159 42.5488 54.4111 42.2752 54.6121C42.0489 54.7781 41.7858 54.8581 41.5246 54.8581Z" fill="#BDD0FB"/>
        <path d="M22.5955 40.5834C22.5955 40.5834 22.744 34.3356 19.8664 32.6635C16.9888 30.9912 11.5174 29.9457 11.3123 20.9748C11.1922 15.7227 11.0623 13.4265 10.9752 12.425C10.9412 12.0346 11.2883 11.7192 11.6736 11.7918C14.3989 12.3052 23.2525 14.4184 25.1087 20.4613C27.3093 27.6252 22.5955 40.5834 22.5955 40.5834Z" fill="#BDD0FB"/>
        <mask id="mask1_233_152" style="mask-type:luminance" maskUnits="userSpaceOnUse" x="13" y="14" width="11" height="25">
            <path d="M13.7813 14.2879C16.7729 16.956 20.2323 21.6779 22.0761 26.4C22.3127 27.1781 23.0049 28.8332 23.3057 31.7736C23.5742 34.2258 23.4406 36.8174 23.1151 38.5326C23.0946 38.6411 22.9898 38.7125 22.8813 38.6919C22.6949 38.6564 22.7198 38.4558 22.7213 38.4623C23.0932 35.5315 22.9389 31.8836 22.0868 28.5923C20.9983 24.5508 18.5704 20.6325 16.0592 17.3091L15.8007 16.9819C13.8551 14.4832 13.4455 14.4647 13.6274 14.2906C13.6704 14.2494 13.7376 14.2491 13.7813 14.2879Z" fill="white"/>
        </mask>
        <g mask="url(#mask1_233_152)">
            <path d="M13.7813 14.288C16.7729 16.9561 20.2323 21.6781 22.076 26.4C22.3126 27.1783 23.0049 28.8335 23.3057 31.7737C23.5741 34.226 23.4406 36.8175 23.1151 38.5328C23.0945 38.6412 22.9898 38.7126 22.8813 38.692C22.6949 38.6565 22.7198 38.4559 22.7213 38.4624C23.0932 35.5317 22.9389 31.8835 22.0868 28.5924C20.9983 24.551 18.5704 20.6327 16.0591 17.3094L15.8007 16.9821C13.8551 14.4833 13.4455 14.4648 13.6274 14.2908C13.6704 14.2498 13.7376 14.2494 13.7813 14.288Z" fill="url(#paint1_linear_233_152)"/>
        </g>
        <path d="M19.8122 32.7266C19.5309 30.8291 19.1975 28.4173 17.6378 27.0954C15.8203 25.5548 9.63552 26.5274 7.61188 26.8972C7.35898 26.9433 7.27388 27.2628 7.47069 27.4281C8.44115 28.2428 10.5171 30.1654 11.0581 32.103C11.5536 33.8775 12.9213 35.2752 14.5437 36.0851C15.4286 36.5268 16.0975 36.4619 17.0101 36.6181C18.1135 36.8068 19.0845 37.464 20.2228 37.5179C20.2385 35.9032 20.0507 34.3258 19.8122 32.7266Z" fill="#91B3FA"/>
        <path d="M10.458 27.9756C13.0399 28.0839 15.8114 29.2617 17.2178 31.471L17.3506 31.6819C17.6571 32.1761 19.3948 35.69 20.3598 38.6029C20.3717 38.6393 20.3521 38.6787 20.3159 38.6906C20.2542 38.7109 20.2232 38.6431 20.2291 38.6491C19.5568 37.0036 18.5911 34.9173 17.8219 33.357C16.9971 31.6545 16.4199 30.5015 14.5386 29.3973C12.4446 28.2079 10.4441 28.0855 10.4501 28.0868C10.4195 28.0834 10.3973 28.0563 10.4004 28.0257C10.4034 27.9963 10.429 27.9746 10.458 27.9756Z" fill="#BDD0FB"/>
        <mask id="mask2_233_152" style="mask-type:luminance" maskUnits="userSpaceOnUse" x="12" y="40" width="15" height="19">
            <path d="M12.2281 40.98C12.2281 40.98 17.3587 54.5109 18.9796 57.3257C20.8611 60.5932 26.3564 58.5111 26.0828 55.7766C25.8094 53.0421 19.3892 41.7396 19.3892 41.7396L12.2281 40.98Z" fill="white"/>
        </mask>
        <g mask="url(#mask2_233_152)">
            <path d="M12.2281 40.98C12.2281 40.98 17.3587 54.5109 18.9796 57.3257C20.8611 60.5932 26.3564 58.5111 26.0828 55.7766C25.8094 53.0421 19.3892 41.7396 19.3892 41.7396L12.2281 40.98Z" fill="url(#paint2_linear_233_152)"/>
        </g>
        <mask id="mask3_233_152" style="mask-type:luminance" maskUnits="userSpaceOnUse" x="18" y="20" width="34" height="30">
            <path d="M50.7138 49.987L18.2891 42.7523L19.0766 32.243L19.1604 31.1236L25.4238 28.9519L51.0487 20.0674L50.7138 49.987ZM21.771 30.8777C21.7544 30.8777 21.7376 30.8809 21.7214 30.8876L20.4783 31.3957C20.4112 31.4232 20.3789 31.5 20.4065 31.567C20.4272 31.6179 20.4763 31.6489 20.5282 31.6489C20.5446 31.6489 20.5616 31.6457 20.5778 31.6391L21.8208 31.1309C21.888 31.1036 21.9202 31.0268 21.8927 30.9596C21.8719 30.9087 21.8229 30.8777 21.771 30.8777ZM47.9457 22.3653C47.9325 22.3653 47.9191 22.3674 47.9059 22.3715L23.7542 30.057C23.6851 30.0791 23.6468 30.1528 23.6689 30.2221C23.6866 30.2779 23.7383 30.3138 23.794 30.3138C23.8072 30.3138 23.8208 30.3117 23.834 30.3076L47.9857 22.6221C48.0548 22.6 48.0931 22.526 48.071 22.4568C48.0533 22.4009 48.0014 22.3653 47.9457 22.3653Z" fill="white"/>
        </mask>
        <g mask="url(#mask3_233_152)">
            <path d="M50.7141 49.9869L18.2892 42.7521L19.0768 32.2429L19.1606 31.1233L25.424 28.9517L51.0489 20.0673L50.7141 49.9869ZM21.7711 30.8775C21.7545 30.8775 21.7377 30.8809 21.7215 30.8875L20.4785 31.3955C20.4113 31.423 20.3791 31.4998 20.4066 31.5668C20.4273 31.6178 20.4764 31.6488 20.5283 31.6488C20.5447 31.6488 20.5617 31.6454 20.5779 31.6388L21.8209 31.1308C21.8881 31.1036 21.9204 31.0265 21.8928 30.9595C21.8721 30.9085 21.823 30.8775 21.7711 30.8775ZM47.9459 22.3652C47.9328 22.3652 47.9193 22.3673 47.9062 22.3714L23.7543 30.0569C23.6853 30.0788 23.647 30.1528 23.669 30.222C23.6868 30.2777 23.7385 30.3137 23.7942 30.3137C23.8073 30.3137 23.8209 30.3115 23.8342 30.3075L47.986 22.622C48.0549 22.5997 48.0931 22.5258 48.0712 22.4566C48.0533 22.4009 48.0017 22.3652 47.9459 22.3652Z" fill="url(#paint3_linear_233_152)"/>
        </g>
        <mask id="mask4_233_152" style="mask-type:luminance" maskUnits="userSpaceOnUse" x="47" y="19" width="8" height="32">
            <path d="M54.2115 35.114C54.2115 43.6059 52.8088 50.49 51.0786 50.49C49.3484 50.49 47.9458 43.6059 47.9458 35.114C47.9458 26.6221 49.3484 19.7381 51.0786 19.7381C52.8088 19.7381 54.2115 26.6221 54.2115 35.114Z" fill="white"/>
        </mask>
        <g mask="url(#mask4_233_152)">
            <path d="M54.2116 35.114C54.2116 43.6058 52.8091 50.4899 51.0787 50.4899C49.3486 50.4899 47.946 43.6058 47.946 35.114C47.946 26.622 49.3486 19.7378 51.0787 19.7378C52.8091 19.7378 54.2116 26.622 54.2116 35.114Z" fill="url(#paint4_linear_233_152)"/>
        </g>
        <mask id="mask5_233_152" style="mask-type:luminance" maskUnits="userSpaceOnUse" x="49" y="20" width="5" height="30">
            <path d="M51.3164 49.4385C51.0332 49.1504 50.4164 48.0394 49.8875 45.1668C49.3764 42.3906 49.0951 38.7896 49.0951 35.0272C49.0951 31.2649 49.3764 27.664 49.8875 24.8877C50.4164 22.0149 51.0332 20.904 51.3164 20.616C51.5996 20.904 52.2164 22.0149 52.7453 24.8877C53.2564 27.664 53.5379 31.2649 53.5379 35.0272C53.5379 38.7896 53.2564 42.3906 52.7453 45.1668C52.2164 48.0394 51.5996 49.1504 51.3164 49.4385Z" fill="white"/>
        </mask>
        <g mask="url(#mask5_233_152)">
            <path d="M51.3163 49.4385C51.0332 49.1504 50.4163 48.0395 49.8875 45.1668C49.3765 42.3906 49.095 38.7897 49.095 35.0273C49.095 31.2649 49.3765 27.6641 49.8875 24.888C50.4163 22.015 51.0332 20.9042 51.3163 20.6161C51.5998 20.9042 52.2166 22.015 52.7454 24.888C53.2565 27.6641 53.538 31.2649 53.538 35.0273C53.538 38.7897 53.2565 42.3906 52.7454 45.1668C52.2166 48.0395 51.5998 49.1504 51.3163 49.4385Z" fill="url(#paint5_linear_233_152)"/>
        </g>
        <mask id="mask6_233_152" style="mask-type:luminance" maskUnits="userSpaceOnUse" x="49" y="20" width="9" height="30">
            <path d="M51.3164 49.4385C51.0332 49.1504 50.4164 48.0394 49.8875 45.1668C49.3764 42.3904 49.0951 38.7896 49.0951 35.0272C49.0951 31.2649 49.3764 27.664 49.8875 24.8877C50.4164 22.0149 51.0332 20.904 51.3164 20.616C51.5996 20.904 52.2164 22.0149 52.7453 24.8877C53.2564 27.664 57.2894 31.2649 57.2894 35.0272C57.2894 38.7896 53.2564 42.3904 52.7453 45.1668C52.2164 48.0394 51.5996 49.1504 51.3164 49.4385Z" fill="white"/>
        </mask>
        <g mask="url(#mask6_233_152)">
            <mask id="mask7_233_152" style="mask-type:luminance" maskUnits="userSpaceOnUse" x="46" y="30" width="10" height="10">
                <path d="M55.3319 34.9126C55.3319 37.5253 53.9245 39.643 51.139 39.643C48.3536 39.643 46.0955 37.5253 46.0955 34.9126C46.0955 32.3002 48.3536 30.1823 51.139 30.1823C53.9245 30.1823 55.3319 32.3002 55.3319 34.9126Z" fill="white"/>
            </mask>
            <g mask="url(#mask7_233_152)">
                <path d="M51.0094 39.6433V39.6414H50.9568V39.6395H50.9038V39.6376H50.8624V39.6357H50.8301V39.6338H50.7982V39.6319H50.766V39.6301H50.7395V39.6282H50.7171V39.6263H50.6944V39.6244H50.6716V39.6225H50.6492V39.6206H50.6265V39.6187H50.6075V39.6169H50.5905V39.615H50.5718V39.6131H50.5548V39.6112H50.5379V39.6093H50.5189V39.6074H50.5019V39.6055H50.4869V39.6037H50.4717V39.6017H50.4584V39.5999H50.4435V39.598H50.4282V39.5961H50.415V39.5942H50.4V39.5923H50.3848V39.5904H50.3715V39.5885H50.3586V39.5866H50.3471V39.5848H50.3339V39.5829H50.3226V39.581H50.3094V39.5791H50.2982V39.5772H50.2867V39.5753H50.2734V39.5734H50.2622V39.5716H50.249V39.5697H50.2378V39.5678H50.2283V39.5659H50.2171V39.564H50.2076V39.5621H50.1964V39.5602H50.1869V39.5584H50.1753V39.5565H50.1641V39.5546H50.1546V39.5527H50.1434V39.5508H50.1339V39.5489H50.1227V39.547H50.1132V39.5452H50.1037V39.5433H50.0942V39.5414H50.0867V39.5395H50.0772V39.5376H50.0681V39.5357H50.0585V39.5338H50.049V39.532H50.0395V39.5301H50.03V39.5282H50.0209V39.5263H50.0114V39.5244H50.0019V39.5225H49.9944V39.5206H49.9869V39.5187H49.9774V39.5168H49.97V39.5149H49.9604V39.5131H49.953V39.5112H49.9452V39.5093H49.936V39.5074H49.9282V39.5055H49.9207V39.5036H49.9112V39.5017H49.9038V39.4999H49.8942V39.498H49.8868V39.4961H49.8793V39.4942H49.8718V39.4923H49.864V39.4904H49.8566V39.4885H49.8491V39.4867H49.8416V39.4848H49.8338V39.4829H49.8264V39.481H49.8189V39.4791H49.8114V39.4772H49.8036V39.4753H49.7961V39.4735H49.7887V39.4716H49.7812V39.4697H49.7737V39.4678H49.768V39.4659H49.7605V39.464H49.7527V39.4621H49.7452V39.4602H49.7395V39.4584H49.732V39.4565H49.7266V39.4546H49.7188V39.4527H49.7113V39.4508H49.7055V39.4489H49.698V39.447H49.6926V39.4452H49.6848V39.4433H49.6773V39.4414H49.6716V39.4395H49.6641V39.4376H49.6583V39.4357H49.6509V39.4338H49.6454V39.432H49.6376V39.43H49.6322V39.4282H49.6244V39.4263H49.6189V39.4244H49.6132V39.4225H49.6074V39.4206H49.5999V39.4187H49.5942V39.4168H49.5887V39.4149H49.5813V39.4131H49.5755V39.4112H49.5697V39.4093H49.5643V39.4074H49.5565V39.4055H49.5511V39.4036H49.5453V39.4017H49.5378V39.3999H49.532V39.398H49.5263V39.3961H49.5208V39.3942H49.5151V39.3923H49.5093V39.3904H49.5039V39.3885H49.4981V39.3867H49.4906V39.3848H49.4849V39.3829H49.4791V39.381H49.4737V39.3791H49.4679V39.3772H49.4621V39.3753H49.4567V39.3735H49.4509V39.3716H49.4451V39.3697H49.4397V39.3678H49.4339V39.3659H49.4282V39.364H49.4227V39.3621H49.417V39.3603H49.4112V39.3584H49.4058V39.3565H49.4V39.3546H49.3942V39.3527H49.3905V39.3508H49.3851V39.3489H49.3793V39.347H49.3735V39.3451H49.3681V39.3432H49.364V39.3414H49.3586V39.3395H49.3528V39.3376H49.347V39.3357H49.3416V39.3338H49.3379V39.3319H49.3321V39.33H49.3263V39.3282H49.3209V39.3263H49.3151V39.3244H49.3114V39.3225H49.3056V39.3206H49.2999V39.3187H49.2944V39.3168H49.2887V39.315H49.2849V39.3131H49.2792V39.3112H49.2737V39.3093H49.2696V39.3074H49.2642V39.3055H49.2605V39.3036H49.2547V39.3018H49.2489V39.2999H49.2452V39.298H49.2398V39.2961H49.2357V39.2942H49.2303V39.2923H49.2245V39.2904H49.2208V39.2885H49.217V39.2565H49.215V39.2244H49.2133V39.1942H49.2113V39.1621H49.2096V39.1282H49.2075V39.0942H49.2058V39.0583H49.2038V39.0244H49.2018V38.9904H49.2001V38.9565H49.198V38.9225H49.1963V38.8867H49.1943V38.8527H49.1926V38.8187H49.1905V38.781H49.1885V38.7433H49.1868V38.7055H49.1848V38.6678H49.1831V38.63H49.181V38.5923H49.1793V38.5546H49.1773V38.515H49.1756V38.4772H49.1736V38.4357H49.1715V38.3923H49.1698V38.3508H49.1678V38.3093H49.1661V38.2678H49.1641V38.2263H49.1624V38.1829H49.1603V38.1414H49.1586V38.0942H49.1566V38.047H49.1546V37.9999H49.1529V37.9527H49.1508V37.9055H49.1491V37.8583H49.1471V37.8131H49.1454V37.7602H49.1434V37.7055H49.1417V37.6527H49.1396V37.5999H49.1376V37.5452H49.1359V37.4923H49.1339V37.4338H49.1322V37.3735H49.1301V37.3112H49.1284V37.2489H49.1264V37.1886H49.1247V37.1263H49.1227V37.0527H49.1206V36.981H49.1189V36.9074H49.1169V36.8338H49.1152V36.7584H49.1132V36.6678H49.1115V36.5791H49.1094V36.4886H49.1074V36.3904H49.1057V36.2753H49.1036V36.1602H49.102V36.03H49.0999V35.8698H49.0982V35.6923H49.0962V35.4224H49.0945V34.6301H49.0962V34.3623H49.0982V34.1847H49.0999V34.0225H49.102V33.8942H49.1036V33.7791H49.1057V33.664H49.1074V33.5639H49.1094V33.4753H49.1115V33.3867H49.1132V33.296H49.1152V33.2207H49.1169V33.147H49.1189V33.0733H49.1206V33H49.1227V32.9281H49.1247V32.8659H49.1264V32.8055H49.1284V32.7434H49.1301V32.6809H49.1322V32.6188H49.1339V32.5621H49.1359V32.5075H49.1376V32.4545H49.1396V32.4019H49.1417V32.3489H49.1434V32.2943H49.1454V32.2413H49.1471V32.1941H49.1491V32.147H49.1508V32.1018H49.1529V32.0546H49.1546V32.0074H49.1566V31.9603H49.1586V31.9131H49.1603V31.8696H49.1624V31.8282H49.1641V31.7868H49.1661V31.745H49.1678V31.7036H49.1698V31.6602H49.1715V31.6188H49.1736V31.5773H49.1756V31.5376H49.1773V31.4999H49.1793V31.4623H49.181V31.4242H49.1831V31.3866H49.1848V31.3489H49.1868V31.3112H49.1885V31.2735H49.1905V31.2358H49.1926V31.2019H49.1943V31.1659H49.1963V31.132H49.198V31.098H49.2001V31.0641H49.2018V31.0301H49.2038V30.9962H49.2058V30.9602H49.2075V30.9263H49.2096V30.8923H49.2113V30.8604H49.2133V30.8302H49.215V30.7979H49.217V30.766H49.2187V30.7358H49.2208V30.7036H49.2228V30.6717H49.2245V30.6415H49.2265V30.6092H49.2282V30.5773H49.2303V30.5471H49.232V30.5301H49.2377V30.5281H49.2415V30.5264H49.2472V30.5243H49.251V30.5226H49.2567V30.5206H49.2622V30.5186H49.2659V30.5169H49.2717V30.5148H49.2775V30.5131H49.2812V30.5111H49.287V30.5094H49.2907V30.5074H49.2961V30.5057H49.3019V30.5036H49.3077V30.5016H49.3131V30.4999H49.3168V30.4979H49.3226V30.4962H49.3284V30.4941H49.3338V30.4924H49.3396V30.4904H49.3453V30.4887H49.3491V30.4867H49.3548V30.4846H49.3603V30.4829H49.3661V30.4809H49.3718V30.4792H49.3756V30.4772H49.381V30.4755H49.3868V30.4734H49.3925V30.4717H49.398V30.4697H49.402V30.4677H49.4075V30.466H49.4132V30.4639H49.419V30.4622H49.4244V30.4602H49.4302V30.4585H49.436V30.4564H49.4434V30.4547H49.4492V30.4527H49.4546V30.4507H49.4604V30.449H49.4662V30.4469H49.4716V30.4452H49.4774V30.4432H49.4832V30.4415H49.4886V30.4395H49.4944V30.4374H49.5001V30.4357H49.5056V30.4337H49.5113V30.432H49.5171V30.43H49.5225V30.4283H49.5283V30.4262H49.5358V30.4245H49.5416V30.4225H49.5473V30.4205H49.5528V30.4188H49.5602V30.4167H49.566V30.415H49.5718V30.413H49.5792V30.4113H49.585V30.4093H49.5904V30.4076H49.5962V30.4055H49.6037V30.4035H49.6094V30.4018H49.6152V30.3998H49.6227V30.3981H49.6285V30.396H49.6339V30.3943H49.6397V30.3923H49.6471V30.3906H49.6546V30.3886H49.6604V30.3865H49.6678V30.3848H49.6736V30.3828H49.6811V30.3811H49.6885V30.379H49.6943V30.3774H49.7018V30.3753H49.7075V30.3736H49.715V30.3716H49.7208V30.3695H49.7283V30.3678H49.7357V30.3658H49.7415V30.3641H49.749V30.3621H49.7547V30.3604H49.7622V30.3583H49.7697V30.3563H49.7775V30.3546H49.7849V30.3526H49.7924V30.3509H49.7999V30.3488H49.8077V30.3471H49.8152V30.3451H49.8226V30.3434H49.8301V30.3414H49.8379V30.3393H49.8454V30.3376H49.8528V30.3356H49.8586V30.3339H49.8661V30.3319H49.8735V30.3302H49.881V30.3281H49.8905V30.3264H49.898V30.3244H49.9075V30.3224H49.915V30.3207H49.9228V30.3186H49.9319V30.3169H49.9397V30.3149H49.9472V30.3132H49.9567V30.3112H49.9642V30.3095H49.9737V30.3074H49.9812V30.3054H49.9886V30.3037H49.9981V30.3017H50.0056V30.3H50.0151V30.2979H50.0246V30.2962H50.0341V30.2942H50.0433V30.2925H50.0528V30.2905H50.0623V30.2884H50.0718V30.2867H50.0813V30.2847H50.0905V30.283H50.0983V30.2809H50.1074V30.2793H50.1169V30.2772H50.1264V30.2752H50.1376V30.2735H50.1492V30.2714H50.1584V30.2697H50.1699V30.2677H50.1794V30.266H50.1906V30.264H50.2001V30.2623H50.2113V30.2602H50.2225V30.2582H50.232V30.2565H50.2436V30.2545H50.2548V30.2528H50.266V30.2507H50.2792V30.249H50.2904V30.247H50.3036V30.2453H50.3152V30.2433H50.3284V30.2412H50.3396V30.2395H50.3508V30.2375H50.3641V30.2358H50.3773V30.2338H50.3905V30.2321H50.4058V30.23H50.4208V30.2283H50.434V30.2263H50.4489V30.2243H50.4642V30.2226H50.4774V30.2205H50.4924V30.2188H50.5094V30.2168H50.5263V30.2151H50.5433V30.2131H50.5623V30.2114H50.5793V30.2093H50.5963V30.2073H50.6149V30.2056H50.6339V30.2035H50.6567V30.2019H50.6791V30.1998H50.7018V30.1981H50.7246V30.1961H50.749V30.194H50.7792V30.1923H50.8115V30.1903H50.8434V30.1886H50.8736V30.1866H50.9245V30.1849H50.9775V30.1828H51.0586V30.1811H51.2188V30.1828H51.3V30.1849H51.3509V30.1866H51.4018V30.1886H51.432V30.1903H51.4643V30.1923H51.4945V30.194H51.5247V30.1961H51.5471V30.1981H51.5678V30.1998H51.5905V30.2019H51.6112V30.2035H51.634V30.2056H51.6527V30.2073H51.67V30.2093H51.6869V30.2114H51.7039V30.2131H51.7209V30.2151H51.7379V30.2168H51.7548V30.2188H51.7718V30.2205H51.785V30.2226H51.7979V30.2243H51.8112V30.2263H51.8265V30.2283H51.8397V30.23H51.8529V30.2321H51.8662V30.2338H51.8811V30.2358H51.8923V30.2375H51.9039V30.2395H51.9151V30.2412H51.9263V30.2433H51.9378V30.2453H51.951V30.247H51.9622V30.249H51.9734V30.2507H51.985V30.2528H51.9962V30.2545H52.0074V30.2565H52.0169V30.2582H52.0264V30.2602H52.0359V30.2623H52.0454V30.264H52.0566V30.266H52.0661V30.2677H52.0756V30.2697H52.0848V30.2714H52.0943V30.2735H52.1055V30.2752H52.115V30.2772H52.1245V30.2793H52.132V30.2809H52.1415V30.283H52.1489V30.2847H52.1585V30.2867H52.1659V30.2884H52.1754V30.2905H52.1829V30.2925H52.1924V30.2942H52.1999V30.2962H52.2094V30.2979H52.2168V30.3H52.2263V30.3017H52.2338V30.3037H52.2416V30.3054H52.2491V30.3074H52.2566V30.3095H52.264V30.3112H52.2718V30.3132H52.2793V30.3149H52.2868V30.3169H52.2942V30.3186H52.302V30.3207H52.3095V30.3224H52.317V30.3244H52.3265V30.3264H52.334V30.3281H52.3414V30.3302H52.3472V30.3319H52.3547V30.3339H52.3604V30.3356H52.3679V30.3376H52.3754V30.3393H52.3811V30.3414H52.3886V30.3434H52.3944V30.3451H52.4018V30.3471H52.4093V30.3488H52.4151V30.3509H52.4226V30.3526H52.4283V30.3546H52.4358V30.3563H52.4416V30.3583H52.449V30.3604H52.4565V30.3621H52.4623V30.3641H52.468V30.3658H52.4735V30.3678H52.4792V30.3695H52.4867V30.3716H52.4925V30.3736H52.4983V30.3753H52.5037V30.3774H52.5112V30.379H52.5169V30.3811H52.5227V30.3828H52.5285V30.3848H52.5359V30.3865H52.5414V30.3886H52.5471V30.3906H52.5529V30.3923H52.5583V30.3943H52.5641V30.396H52.5699V30.3981H52.5753V30.3998H52.5811V30.4018H52.5868V30.4035H52.5923V30.4055H52.5981V30.4076H52.6038V30.4093H52.6096V30.4113H52.615V30.413H52.6208V30.415H52.6266V30.4167H52.632V30.4188H52.6378V30.4205H52.6435V30.4225H52.6473V30.4245H52.6527V30.4262H52.6585V30.4283H52.6642V30.43H52.6697V30.432H52.6755V30.4337H52.6792V30.4357H52.685V30.4374H52.6907V30.4395H52.6945V30.4415H52.6999V30.4432H52.7057V30.4452H52.7114V30.4469H52.7152V30.449H52.7206V30.4507H52.7264V30.4527H52.7301V30.4547H52.7359V30.4564H52.7416V30.4585H52.7454V30.4602H52.7508V30.4622H52.7566V30.4639H52.7603V30.466H52.7661V30.4677H52.7719V30.4697H52.7756V30.4717H52.781V30.4734H52.7848V30.4755H52.7905V30.4772H52.7943V30.4792H52.798V30.4809H52.8038V30.4829H52.8075V30.4846H52.8133V30.4867H52.817V30.4887H52.8228V30.4904H52.8265V30.4924H52.8319V30.4941H52.8357V30.4962H52.8414V30.4979H52.8452V30.4999H52.8509V30.5016H52.8547V30.5036H52.8584V30.5057H52.8642V30.5074H52.8679V30.5094H52.8737V30.5111H52.8774V30.5131H52.8812V30.5148H52.8869V30.5169H52.8907V30.5186H52.8944V30.5206H52.8981V30.5226H52.9039V30.5243H52.9076V30.5264H52.9114V30.5281H52.9168V30.5301H52.9209V30.5318H52.9246V30.5338H52.9283V30.5359H52.9341V30.5376H52.9379V30.5396H52.9416V30.5413H52.9453V30.5434H52.9511V30.545H52.9548V30.5471H52.9586V30.5488H52.964V30.5508H52.9681V30.5529H52.9718V30.5546H52.9755V30.5566H52.9793V30.5583H52.983V30.5603H52.9867V30.562H52.9925V30.5641H52.9962V30.5658H53V30.5678H53.0037V30.5698H53.0074V30.5715H53.0112V30.5736H53.0152V30.5753H53.019V30.5773H53.0227V30.579H53.0281V30.581H53.0322V30.5827H53.036V30.5848H53.0397V30.5868H53.0434V30.5885H53.0472V30.5905H53.0509V30.5922H53.0546V30.5943H53.0584V30.596H53.0621V30.598H53.0679V30.6H53.0716V30.6017H53.0736V30.6038H53.0774V30.6055H53.0811V30.6075H53.0848V30.6092H53.0886V30.6112H53.0923V30.6129H53.0964V30.615H53.1001V30.617H53.1038V30.6187H53.1076V30.6207H53.1113V30.6224H53.1151V30.6245H53.1188V30.6262H53.1225V30.6282H53.1263V30.6299H53.1303V30.6319H53.1341V30.634H53.1378V30.6357H53.1415V30.6377H53.1453V30.6394H53.149V30.6415H53.1527V30.6431H53.1565V30.6452H53.1605V30.6469H53.1622V30.6489H53.166V30.651H53.1697V30.6527H53.1734V30.6547H53.1775V30.6564H53.1812V30.6584H53.1829V30.6601H53.1867V30.6622H53.1904V30.6639H53.1945V30.6659H53.1982V30.6679H53.202V30.6696H53.2036V30.6717H53.2074V30.6734H53.2115V30.6754H53.2152V30.6771H53.2189V30.6791H53.2206V30.6812H53.2244V30.6829H53.2284V30.6849H53.2322V30.6866H53.2359V30.6886H53.2396V30.6903H53.2417V30.6924H53.2454V30.6941H53.2491V30.6961H53.2529V30.6981H53.2566V30.6998H53.2586V30.7019H53.2624V30.7036H53.2661V30.7056H53.2698V30.7073H53.2715V30.7093H53.2756V30.711H53.2793V30.7131H53.281V30.7151H53.2848V30.7168H53.2885V30.7189H53.2906V30.7205H53.2943V30.7226H53.298V30.7243H53.3018V30.7263H53.3038V30.728H53.3075V30.7301H53.3113V30.7321H53.3133V30.7338H53.317V30.7358H53.3208V30.7375H53.3228V30.7396H53.3265V30.7413H53.3303V30.7433H53.334V30.745H53.3357V30.747H53.3398V30.7491H53.3435V30.7508H53.3452V30.7528H53.3489V30.7545H53.3527V30.7565H53.3547V30.7582H53.3584V30.7603H53.3605V30.7623H53.3642V30.764H53.3679V30.766H53.3696V30.7677H53.3737V30.7698H53.3754V30.7715H53.3792V30.7735H53.3829V30.7752H53.3849V30.7772H53.3887V30.7793H53.3907V30.781H53.3944V30.783H53.3982V30.7847H53.3999V30.7867H53.4039V30.7884H53.4056V30.7905H53.4094V30.7922H53.4131V30.7942H53.4151V30.7962H53.4189V30.7979H53.4209V30.8H53.4246V30.8017H53.4284V30.8037H53.4301V30.8054H53.4338V30.8074H53.4358V30.8091H53.4396V30.8112H53.4416V30.8132H53.4453V30.8149H53.447V30.817H53.4508V30.8187H53.4528V30.8207H53.4565V30.8224H53.4586V30.8244H53.4623V30.8261H53.464V30.8282H53.4677V30.8302H53.4698V30.8319H53.4735V30.8339H53.4756V30.8356H53.4793V30.8377H53.481V30.8394H53.4851V30.8414H53.4868V30.8434H53.4905V30.8451H53.4925V30.8472H53.4963V30.8489H53.498V30.8509H53.502V30.8526H53.5037V30.8546H53.5075V30.8563H53.5095V30.8584H53.5132V30.8604H53.5149V30.8621H53.519V30.8641H53.5207V30.8658H53.5244V30.8679H53.5265V30.8696H53.5302V30.8716H53.5319V30.8733H53.5339V30.8753H53.5377V30.8774H53.5397V30.8791H53.5434V30.8811H53.5451V30.8828H53.5472V30.8848H53.5509V30.8865H53.553V30.8886H53.5567V30.8903H53.5584V30.8923H53.5604V30.8944H53.5642V30.896H53.5662V30.8981H53.5699V30.8998H53.5716V30.9018H53.5737V30.9035H53.5774V30.9056H53.5791V30.9073H53.5832V30.9093H53.5849V30.9113H53.5869V30.913H53.5906V30.9151H53.5923V30.9168H53.5961V30.9188H53.5981V30.9205H53.6001V30.9225H53.6039V30.9246H53.6056V30.9263H53.6093V30.9283H53.6113V30.93H53.613V30.932H53.6171V30.9337H53.6188V30.9358H53.6208V30.9375H53.6246V30.9395H53.6263V30.9415H53.6283V30.9432H53.632V30.9453H53.6341V30.947H53.6358V30.949H53.6395V30.9507H53.6416V30.9527H53.6433V30.9544H53.6473V30.9565H53.649V30.9585H53.6511V30.9602H53.6548V30.9622H53.6565V30.9639H53.6585V30.966H53.6602V30.9677H53.6643V30.9697H53.666V30.9714H53.668V30.9734H53.6718V30.9755H53.6735V30.9772H53.6755V30.9792H53.6792V30.9809H53.6813V30.983H53.683V30.9846H53.6867V30.9867H53.6887V30.9884H53.6904V30.9904H53.6942V30.9925H53.6962V30.9942H53.6982V30.9962H53.6999V30.9979H53.7037V30.9999H53.7057V31.0016H53.7074V31.0037H53.7094V31.0057H53.7132V31.0074H53.7152V31.0094H53.7169V31.0111H53.719V31.0132H53.7227V31.0149H53.7244V31.0169H53.7264V31.0186H53.7285V31.0206H53.7322V31.0227H53.7339V31.0244H53.7359V31.0264H53.7376V31.0281H53.7414V31.0301H53.7434V31.0318H53.7454V31.0339H53.7471V31.0356H53.7509V31.0376H53.7529V31.0396H53.7546V31.0413H53.7566V31.0434H53.7604V31.0451H53.7624V31.0471H53.7641V31.0488H53.7661V31.0508H53.7699V31.0525H53.7716V31.0546H53.7736V31.0566H53.7753V31.0583H53.7773V31.0603H53.7794V31.062H53.7831V31.0641H53.7848V31.0658H53.7868V31.0678H53.7885V31.0695H53.7906V31.0715H53.7943V31.0736H53.7963V31.0753H53.798V31.0773H53.8001V31.079H53.8018V31.0811H53.8038V31.0828H53.8076V31.0848H53.8096V31.0868H53.8113V31.0885H53.8133V31.0906H53.815V31.0923H53.8171V31.0943H53.8208V31.096H53.8225V31.098H53.8245V31.0997H53.8266V31.1018H53.8283V31.1038H53.832V31.1055H53.834V31.1075H53.8357V31.1092H53.8378V31.1113H53.8395V31.113H53.8415V31.115H53.8452V31.1167H53.8473V31.1187H53.849V31.1208H53.851V31.1225H53.8527V31.1245H53.8547V31.1262H53.8564V31.1282H53.8605V31.1299H53.8622V31.132H53.8642V31.1337H53.8659V31.1357H53.868V31.1377H53.8697V31.1394H53.8717V31.1415H53.8737V31.1432H53.8754V31.1452H53.8792V31.1469H53.8812V31.1489H53.8829V31.1506H53.8849V31.1527H53.8866V31.1547H53.8887V31.1564H53.8907V31.1585H53.8924V31.1602H53.8945V31.1622H53.8982V31.1639H53.8999V31.1659H53.9019V31.168H53.9036V31.1697H53.9057V31.1717H53.9077V31.1734H53.9094V31.1754H53.9114V31.1771H53.9131V31.1792H53.9169V31.1809H53.9189V31.1829H53.9206V31.1849H53.9226V31.1866H53.9247V31.1887H53.9264V31.1904H53.9284V31.1924H53.9301V31.1941H53.9321V31.1961H53.9338V31.1978H53.9359V31.1999H53.9376V31.2019H53.9396V31.2036H53.9433V31.2056H53.9454V31.2073H53.9471V31.2094H53.9491V31.2111H53.9508V31.2131H53.9528V31.2148H53.9549V31.2168H53.9566V31.2189H53.9586V31.2206H53.9603V31.2226H53.9623V31.2243H53.964V31.2263H53.9661V31.228H53.9678V31.2301H53.9698V31.2321H53.9718V31.2338H53.9735V31.2358H53.9756V31.2375H53.9773V31.2396H53.9793V31.2413H53.983V31.2433H53.9847V31.245H53.9868V31.2471H53.9888V31.2491H53.9905V31.2508H53.9926V31.2528H53.9943V31.2545H53.9963V31.2566H53.998V31.2583H54V31.2603H54.0017V31.262H54.0038V31.264H54.0058V31.2661H54.0075V31.2678H54.0095V31.2698H54.0112V31.2715H54.0133V31.2735H54.015V31.2752H54.017V31.2773H54.0187V31.279H54.0207V31.281H54.0228V31.283H54.0245V31.2847H54.0265V31.2868H54.0282V31.2885H54.0302V31.2905H54.0319V31.2922H54.034V31.2942H54.036V31.2959H54.0377V31.298H54.0397V31.3H54.0414V31.3017H54.0435V31.3037H54.0452V31.3054H54.0472V31.3075H54.0489V31.3092H54.0509V31.3112H54.053V31.3132H54.0547V31.3149H54.0567V31.317H54.0584V31.3187H54.0604V31.3207H54.0621V31.3224H54.0642V31.3244H54.0659V31.3261H54.0679V31.3282H54.07V31.3302H54.0717V31.3319H54.0737V31.334H54.0754V31.3356H54.0774V31.3377H54.0791V31.3394H54.0812V31.3431H54.0829V31.3452H54.0849V31.3472H54.0869V31.3489H54.0886V31.3509H54.0907V31.3526H54.0924V31.3547H54.0944V31.3564H54.0961V31.3584H54.0981V31.3601H54.0998V31.3621H54.1019V31.3642H54.1039V31.3659H54.1056V31.3679H54.1076V31.3696H54.1093V31.3733H54.1114V31.3754H54.1131V31.3771H54.1151V31.3791H54.1171V31.3811H54.1188V31.3828H54.1209V31.3849H54.1226V31.3866H54.1246V31.3886H54.1263V31.3903H54.1283V31.3923H54.13V31.3944H54.1321V31.3961H54.1341V31.3981H54.1358V31.3998H54.1378V31.4018H54.1395V31.4056H54.1416V31.4073H54.1433V31.4093H54.1453V31.4114H54.147V31.413H54.149V31.4151H54.1511V31.4168H54.1528V31.4188H54.1548V31.4205H54.1565V31.4242H54.1586V31.4263H54.1602V31.4283H54.1623V31.43H54.164V31.4321H54.166V31.4338H54.1681V31.4358H54.1698V31.4375H54.1718V31.4412H54.1735V31.4433H54.1755V31.4453H54.1772V31.447H54.1793V31.449H54.181V31.4507H54.183V31.4528H54.185V31.4545H54.1867V31.4582H54.1888V31.4602H54.1905V31.4623H54.1925V31.464H54.1942V31.466H54.1962V31.4677H54.1983V31.4697H54.2V31.4714H54.202V31.4755H54.2037V31.4772H54.2057V31.4792H54.2074V31.4809H54.2095V31.483H54.2112V31.4847H54.2132V31.4867H54.2152V31.4884H54.2169V31.4925H54.219V31.4942H54.2207V31.4962H54.2227V31.4979H54.2244V31.4999H54.2264V31.5037H54.2281V31.5054H54.2302V31.5074H54.2322V31.5095H54.2339V31.5112H54.2359V31.5149H54.2376V31.5169H54.2397V31.5186H54.2414V31.5207H54.2434V31.5224H54.2451V31.5264H54.2472V31.5281H54.2492V31.5302H54.2509V31.5319H54.2529V31.5339H54.2546V31.5356H54.2567V31.5393H54.2584V31.5414H54.2604V31.5434H54.2624V31.5451H54.2641V31.5471H54.2662V31.5509H54.2679V31.5526H54.2699V31.5546H54.2716V31.5566H54.2736V31.5583H54.2753V31.5621H54.2774V31.5641H54.2794V31.5658H54.2811V31.5678H54.2831V31.5695H54.2848V31.5736H54.2869V31.5753H54.2886V31.5773H54.2906V31.579H54.2923V31.5828H54.2943V31.5848H54.2964V31.5865H54.2981V31.5885H54.3001V31.5923H54.3018V31.5943H54.3038V31.596H54.3055V31.5998H54.3076V31.6018H54.3093V31.6035H54.3113V31.6055H54.3133V31.6093H54.315V31.6113H54.3171V31.613H54.3188V31.615H54.3208V31.6188H54.3225V31.6205H54.3245V31.6225H54.3262V31.6245H54.3283V31.6283H54.3303V31.63H54.332V31.632H54.3341V31.6337H54.3358V31.6378H54.3378V31.6395H54.3395V31.6415H54.3415V31.6432H54.3436V31.6469H54.3453V31.649H54.3473V31.6507H54.349V31.6547H54.351V31.6564H54.3527V31.6585H54.3548V31.6622H54.3565V31.6639H54.3585V31.6659H54.3605V31.6697H54.3622V31.6717H54.3643V31.6734H54.366V31.6771H54.368V31.6792H54.3697V31.6809H54.3717V31.6846H54.3734V31.6867H54.3755V31.6887H54.3775V31.6904H54.3792V31.6941H54.3812V31.6962H54.3829V31.6979H54.385V31.7016H54.3867V31.7036H54.3887V31.7057H54.3904V31.7094H54.3924V31.7111H54.3945V31.7131H54.3962V31.7169H54.3982V31.7189H54.3999V31.7206H54.4019V31.7243H54.4036V31.7264H54.4057V31.7281H54.4074V31.7318H54.4094V31.7338H54.4114V31.7376H54.4131V31.7396H54.4152V31.7413H54.4169V31.745H54.4189V31.7471H54.4206V31.7508H54.4227V31.7528H54.4247V31.7545H54.4264V31.7583H54.4284V31.7603H54.4301V31.764H54.4322V31.7657H54.4339V31.7678H54.4359V31.7715H54.4376V31.7736H54.4396V31.7773H54.4417V31.779H54.4434V31.781H54.4454V31.7848H54.4471V31.7868H54.4491V31.7905H54.4508V31.7922H54.4529V31.7943H54.4546V31.798H54.4566V31.8H54.4586V31.8038H54.4603V31.8055H54.4624V31.8075H54.4641V31.8112H54.4661V31.8129H54.4678V31.817H54.4698V31.8187H54.4715V31.8224H54.4736V31.8245H54.4756V31.8282H54.4773V31.8299H54.4793V31.834H54.481V31.8357H54.4831V31.8394H54.4848V31.8414H54.4868V31.8431H54.4885V31.8469H54.4905V31.8489H54.4926V31.8526H54.4943V31.8547H54.4963V31.8584H54.498V31.8601H54.5001V31.8642H54.5017V31.8659H54.5038V31.8696H54.5058V31.8717H54.5075V31.8754H54.5096V31.8771H54.5113V31.8812H54.5133V31.8829H54.515V31.8866H54.517V31.8886H54.5187V31.8924H54.5208V31.8941H54.5228V31.8981H54.5245V31.8998H54.5265V31.9036H54.5282V31.9056H54.5303V31.9093H54.532V31.911H54.534V31.9151H54.5357V31.9168H54.5377V31.9205H54.5398V31.9243H54.5415V31.9263H54.5435V31.93H54.5452V31.9321H54.5472V31.9358H54.5489V31.9375H54.551V31.9412H54.5527V31.9453H54.5547V31.947H54.5567V31.9508H54.5584V31.9528H54.5605V31.9565H54.5622V31.9582H54.5642V31.9623H54.5659V31.966H54.5679V31.9677H54.5696V31.9715H54.5717V31.9735H54.5737V31.9772H54.5754V31.9793H54.5774V31.983H54.5791V31.9867H54.5812V31.9884H54.5829V31.9922H54.5849V31.9942H54.587V31.9979H54.5886V32.0017H54.5907V32.0037H54.5924V32.0074H54.5944V32.0112H54.5961V32.0132H54.5982V32.0169H54.5998V32.0207H54.6019V32.0224H54.6039V32.0265H54.6056V32.0302H54.6077V32.0319H54.6094V32.0356H54.6114V32.0394H54.6131V32.0414H54.6151V32.0451H54.6168V32.0489H54.6189V32.0509H54.6209V32.0546H54.6226V32.0584H54.6246V32.0604H54.6263V32.0641H54.6284V32.0658H54.6301V32.0696H54.6321V32.0733H54.6338V32.0753H54.6358V32.0791H54.6379V32.0828H54.6396V32.0865H54.6416V32.0886H54.6433V32.0923H54.6453V32.096H54.647V32.0998H54.6491V32.1018H54.6508V32.1055H54.6528V32.1093H54.6548V32.113H54.6565V32.1151H54.6586V32.1188H54.6603V32.1225H54.6623V32.1263H54.664V32.1283H54.666V32.132H54.6681V32.1358H54.6698V32.1395H54.6718V32.1415H54.6735V32.1453H54.6755V32.149H54.6772V32.1527H54.6793V32.1544H54.681V32.1585H54.683V32.1622H54.6851V32.166H54.6868V32.1677H54.6888V32.1714H54.6905V32.1755H54.6925V32.1792H54.6942V32.1829H54.6963V32.1867H54.698V32.1887H54.7V32.1924H54.702V32.1962H54.7037V32.1999H54.7058V32.2036H54.7075V32.2074H54.7095V32.2111H54.7112V32.2149H54.7132V32.2169H54.7149V32.2206H54.717V32.2244H54.719V32.2281H54.7207V32.2318H54.7227V32.2356H54.7244V32.2396H54.7265V32.2413H54.7282V32.2451H54.7302V32.2488H54.7319V32.2525H54.7339V32.2566H54.736V32.2603H54.7377V32.2641H54.7397V32.2658H54.7414V32.2698H54.7434V32.2736H54.7451V32.2773H54.7472V32.281H54.7492V32.2848H54.7509V32.2885H54.7529V32.2923H54.7546V32.296H54.7567V32.2997H54.7584V32.3038H54.7604V32.3075H54.7621V32.3113H54.7641V32.315H54.7662V32.3187H54.7679V32.3225H54.7699V32.3262H54.7716V32.3299H54.7737V32.3337H54.7754V32.3377H54.7774V32.3415H54.7791V32.3452H54.7811V32.3489H54.7832V32.3527H54.7849V32.3564H54.7869V32.3601H54.7886V32.3639H54.7906V32.3679H54.7923V32.3717H54.7944V32.3754H54.7961V32.3792H54.7981V32.3829H54.8001V32.3866H54.8018V32.3904H54.8039V32.3941H54.8056V32.3999H54.8076V32.4036H54.8093V32.4073H54.8113V32.4111H54.813V32.4148H54.8151V32.4189H54.8171V32.4226H54.8188V32.4263H54.8208V32.4301H54.8225V32.4338H54.8246V32.4375H54.8263V32.4433H54.8283V32.447H54.8303V32.4508H54.832V32.4545H54.8341V32.4582H54.8358V32.462H54.8378V32.4661H54.8395V32.4715H54.8415V32.4752H54.8432V32.479H54.8453V32.483H54.8473V32.4885H54.849V32.4922H54.8511V32.4963H54.8527V32.5H54.8548V32.5037H54.8565V32.5092H54.8585V32.5132H54.8602V32.517H54.8623V32.5207H54.8643V32.5261H54.866V32.5302H54.868V32.5339H54.8697V32.5377H54.8718V32.5414H54.8735V32.5472H54.8755V32.5509H54.8772V32.5547H54.8792V32.5584H54.8813V32.5642H54.883V32.5679H54.885V32.5733H54.8867V32.5774H54.8887V32.5811H54.8904V32.5866H54.8925V32.5903H54.8945V32.5944H54.8962V32.5998H54.8982V32.6035H54.8999V32.6073H54.902V32.613H54.9037V32.6168H54.9057V32.6225H54.9074V32.6263H54.9094V32.63H54.9115V32.6358H54.9132V32.6395H54.9152V32.6433H54.9169V32.649H54.9189V32.6528H54.9206V32.6585H54.9227V32.6623H54.9244V32.6677H54.9264V32.6714H54.9284V32.6772H54.9301V32.6809H54.9322V32.6867H54.9339V32.6904H54.9359V32.6962H54.9376V32.6999H54.9397V32.7054H54.9413V32.7094H54.9434V32.7149H54.9454V32.7186H54.9471V32.7244H54.9492V32.7281H54.9509V32.7339H54.9529V32.7397H54.9546V32.7434H54.9566V32.7488H54.9583V32.7526H54.9604V32.7583H54.9624V32.7621H54.9641V32.7678H54.9661V32.7736H54.9678V32.7773H54.9699V32.7828H54.9716V32.7885H54.9736V32.7943H54.9756V32.798H54.9773V32.8035H54.9794V32.8092H54.9811V32.813H54.9831V32.8188H54.9848V32.8245H54.9868V32.8283H54.9885V32.8337H54.9906V32.8395H54.9926V32.8452H54.9943V32.849H54.9963V32.8547H54.998V32.8602H55.0001V32.8639H55.0018V32.8697H55.0038V32.8754H55.0055V32.8809H55.0075V32.8866H55.0096V32.8924H55.0113V32.8978H55.0133V32.9036H55.015V32.9094H55.017V32.9148H55.0187V32.9189H55.0208V32.9243H55.0225V32.9301H55.0245V32.9359H55.0266V32.9413H55.0282V32.9471H55.0303V32.9528H55.032V32.9583H55.034V32.964H55.0357V32.9698H55.0378V32.9752H55.0395V32.981H55.0415V32.9868H55.0435V32.9922H55.0452V32.998H55.0473V33.0038H55.049V33.0092H55.051V33.015H55.0527V33.0224H55.0547V33.0282H55.0568V33.034H55.0585V33.0394H55.0605V33.0452H55.0622V33.0509H55.0642V33.0564H55.0659V33.0621H55.068V33.0679H55.0697V33.0754H55.0717V33.0812H55.0737V33.0866H55.0754V33.0941H55.0775V33.0998H55.0792V33.1056H55.0812V33.1131H55.0829V33.1188H55.0849V33.1263H55.0866V33.1321H55.0887V33.1375H55.0907V33.1453H55.0924V33.1507H55.0944V33.1565H55.0961V33.164H55.0982V33.1698H55.0999V33.1752H55.1019V33.183H55.1036V33.1905H55.1056V33.1962H55.1077V33.2037H55.1094V33.2095H55.1114V33.2169H55.1131V33.2244H55.1151V33.2302H55.1168V33.2376H55.1189V33.2451H55.1206V33.2509H55.1226V33.2584H55.1247V33.2641H55.1264V33.2716H55.1284V33.2791H55.1301V33.2848H55.1321V33.2923H55.1338V33.2998H55.1359V33.3076H55.1379V33.315H55.1396V33.3225H55.1416V33.33H55.1433V33.3374H55.1454V33.3453H55.1471V33.3527H55.1491V33.3602H55.1508V33.3677H55.1528V33.3734H55.1549V33.3809H55.1566V33.3887H55.1586V33.3962H55.1603V33.4057H55.1623V33.4131H55.164V33.4206H55.1661V33.4301H55.1678V33.4376H55.1698V33.4451H55.1718V33.4529H55.1735V33.462H55.1756V33.4698H55.1773V33.4773H55.1793V33.4868H55.181V33.4943H55.183V33.5017H55.1847V33.5113H55.1868V33.5208H55.1888V33.5282H55.1905V33.5377H55.1925V33.5469H55.1942V33.5547H55.1963V33.5639H55.198V33.5734H55.2V33.5829H55.2017V33.5903H55.2038V33.5998H55.2058V33.6094H55.2075V33.6189H55.2095V33.628H55.2112V33.6375H55.2133V33.647H55.215V33.6565H55.217V33.6677H55.219V33.6772H55.2207V33.6868H55.2228V33.6963H55.2245V33.7054H55.2265V33.717H55.2282V33.7261H55.2302V33.7377H55.2319V33.7472H55.234V33.7584H55.236V33.7696H55.2377V33.7811H55.2397V33.7923H55.2414V33.8035H55.2435V33.813H55.2452V33.8242H55.2472V33.8358H55.2489V33.847H55.2509V33.8602H55.253V33.8714H55.2547V33.8847H55.2567V33.8962H55.2584V33.9094H55.2604V33.9206H55.2621V33.9339H55.2642V33.9471H55.2659V33.9583H55.2679V33.9736H55.2699V33.9865H55.2716V34.0018H55.2737V34.015H55.2754V34.0299H55.2774V34.0432H55.2791V34.0585H55.2811V34.0717H55.2828V34.0887H55.2849V34.1056H55.2869V34.1206H55.2886V34.1376H55.2907V34.1545H55.2923V34.1698H55.2944V34.1868H55.2961V34.2054H55.2981V34.2262H55.3002V34.2452H55.3019V34.2642H55.3039V34.2849H55.3056V34.3036H55.3076V34.3283H55.3093V34.3507H55.3114V34.3752H55.3131V34.4H55.3151V34.4244H55.3171V34.4546H55.3188V34.4848H55.3209V34.5167H55.3226V34.549H55.3246V34.5924H55.3263V34.6376H55.3283V34.6885H55.33V34.7639H55.3321V35.0622H55.33V35.1356H55.3283V35.1885H55.3263V35.232H55.3246V35.2771H55.3226V35.3073H55.3209V35.3396H55.3188V35.3715H55.3171V35.4017H55.3151V35.4244H55.3131V35.4489H55.3114V35.4733H55.3093V35.4981H55.3076V35.5205H55.3056V35.5412H55.3039V35.5602H55.3019V35.5792H55.3002V35.6H55.2981V35.6186H55.2961V35.6376H55.2944V35.6546H55.2923V35.6716H55.2907V35.6865H55.2886V35.7035H55.2869V35.7205H55.2849V35.7378H55.2828V35.7527H55.2811V35.7676H55.2791V35.7809H55.2774V35.7962H55.2754V35.8094H55.2737V35.8243H55.2716V35.8376H55.2699V35.8528H55.2679V35.8657H55.2659V35.879H55.2642V35.8905H55.2621V35.9038H55.2604V35.917H55.2584V35.9282H55.2567V35.9414H55.2547V35.9527H55.253V35.9659H55.2509V35.9771H55.2489V35.9886H55.2472V35.9998H55.2452V36.011H55.2435V36.0226H55.2414V36.0338H55.2397V36.045H55.2377V36.0546H55.236V36.0659H55.234V36.0772H55.2319V36.0885H55.2302V36.098H55.2282V36.1093H55.2265V36.1187H55.2245V36.1282H55.2228V36.1376H55.2207V36.1489H55.219V36.1584H55.217V36.1678H55.215V36.1772H55.2133V36.1867H55.2112V36.198H55.2095V36.2074H55.2075V36.2169H55.2058V36.2244H55.2038V36.2338H55.2017V36.2433H55.2V36.2527H55.198V36.2602H55.1963V36.2697H55.1942V36.2791H55.1925V36.2866H55.1905V36.2961H55.1888V36.3055H55.1868V36.315H55.1847V36.3225H55.183V36.3301H55.181V36.3395H55.1793V36.347H55.1773V36.3546H55.1756V36.364H55.1735V36.3716H55.1718V36.3791H55.1698V36.3886H55.1678V36.3961H55.1661V36.4037H55.164V36.4112H55.1623V36.4206H55.1603V36.4282H55.1586V36.4357H55.1566V36.4433H55.1549V36.4508H55.1528V36.4583H55.1508V36.4659H55.1491V36.4735H55.1471V36.481H55.1454V36.4886H55.1433V36.4961H55.1416V36.5036H55.1396V36.5093H55.1379V36.5168H55.1359V36.5244H55.1338V36.5319H55.1321V36.5395H55.1301V36.547H55.1284V36.5527H55.1264V36.5603H55.1247V36.5678H55.1226V36.5735H55.1206V36.581H55.1189V36.5886H55.1168V36.5942H55.1151V36.6018H55.1131V36.6074H55.1114V36.615H55.1094V36.6225H55.1077V36.6282H55.1056V36.6357H55.1036V36.6432H55.1019V36.6489H55.0999V36.6546H55.0982V36.6621H55.0961V36.6678H55.0944V36.6753H55.0924V36.681H55.0907V36.6867H55.0887V36.6942H55.0866V36.6999H55.0849V36.7055H55.0829V36.7131H55.0812V36.7187H55.0792V36.7244H55.0775V36.7319H55.0754V36.7376H55.0737V36.7433H55.0717V36.7508H55.0697V36.7565H55.068V36.7621H55.0659V36.7678H55.0642V36.7735H55.0622V36.7791H55.0605V36.7867H55.0585V36.7923H55.0568V36.798H55.0547V36.8036H55.0527V36.8093H55.051V36.8149H55.049V36.8206H55.0473V36.8263H55.0452V36.832H55.0435V36.8395H55.0415V36.8452H55.0395V36.8508H55.0378V36.8565H55.0357V36.8621H55.034V36.8678H55.032V36.8734H55.0303V36.8791H55.0282V36.8829H55.0266V36.8885H55.0245V36.8942H55.0225V36.8999H55.0208V36.9055H55.0187V36.9112H55.017V36.9169H55.015V36.9225H55.0133V36.9282H55.0113V36.9319H55.0096V36.9376H55.0075V36.9433H55.0055V36.9489H55.0038V36.9546H55.0018V36.9602H55.0001V36.9659H54.998V36.9716H54.9963V36.9753H54.9943V36.981H54.9926V36.9866H54.9906V36.9904H54.9885V36.9961H54.9868V37.0018H54.9848V37.0055H54.9831V37.0112H54.9811V37.0169H54.9794V37.0225H54.9773V37.0263H54.9756V37.0319H54.9736V37.0376H54.9716V37.0414H54.9699V37.047H54.9678V37.0527H54.9661V37.0565H54.9641V37.0621H54.9624V37.0678H54.9604V37.0716H54.9583V37.0772H54.9566V37.081H54.9546V37.0867H54.9529V37.0904H54.9509V37.0961H54.9492V37.0999H54.9471V37.1055H54.9454V37.1112H54.9434V37.115H54.9413V37.1206H54.9397V37.1244H54.9376V37.1301H54.9359V37.1338H54.9339V37.1395H54.9322V37.1433H54.9301V37.1489H54.9284V37.1527H54.9264V37.1583H54.9244V37.1621H54.9227V37.1678H54.9206V37.1715H54.9189V37.1772H54.9169V37.181H54.9152V37.1848H54.9132V37.1904H54.9115V37.1942H54.9094V37.198H54.9074V37.2036H54.9057V37.2074H54.9037V37.2131H54.902V37.2168H54.8999V37.2206H54.8982V37.2263H54.8962V37.23H54.8945V37.2338H54.8925V37.2395H54.8904V37.2433H54.8887V37.2489H54.8867V37.2527H54.885V37.2565H54.883V37.2621H54.8813V37.2659H54.8792V37.2697H54.8772V37.2753H54.8755V37.2791H54.8735V37.2829H54.8718V37.2867H54.8697V37.2904H54.868V37.2961H54.866V37.2999H54.8643V37.3036H54.8623V37.3074H54.8602V37.3131H54.8585V37.3168H54.8565V37.3206H54.8548V37.3244H54.8527V37.3282H54.8511V37.3338H54.849V37.3376H54.8473V37.3414H54.8453V37.3452H54.8432V37.3508H54.8415V37.3546H54.8395V37.3584H54.8378V37.3621H54.8358V37.3659H54.8341V37.3716H54.832V37.3753H54.8303V37.3791H54.8283V37.3829H54.8263V37.3867H54.8246V37.3904H54.8225V37.3942H54.8208V37.398H54.8188V37.4017H54.8171V37.4055H54.8151V37.4112H54.813V37.4149H54.8113V37.4187H54.8093V37.4225H54.8076V37.4263H54.8056V37.43H54.8039V37.4338H54.8018V37.4376H54.8001V37.4414H54.7981V37.4452H54.7961V37.4489H54.7944V37.4546H54.7923V37.4584H54.7906V37.4621H54.7886V37.4659H54.7869V37.4697H54.7849V37.4735H54.7832V37.4772H54.7811V37.481H54.7791V37.4848H54.7774V37.4885H54.7754V37.4923H54.7737V37.4961H54.7716V37.498H54.7699V37.5017H54.7679V37.5055H54.7662V37.5093H54.7641V37.5131H54.7621V37.5169H54.7604V37.5206H54.7584V37.5244H54.7567V37.5282H54.7546V37.532H54.7529V37.5357H54.7509V37.5395H54.7492V37.5433H54.7472V37.547H54.7451V37.5508H54.7434V37.5546H54.7414V37.5584H54.7397V37.5621H54.7377V37.5659H54.736V37.5697H54.7339V37.5716H54.7319V37.5753H54.7302V37.5791H54.7282V37.5829H54.7265V37.5866H54.7244V37.5904H54.7227V37.5942H54.7207V37.5961H54.719V37.5999H54.717V37.6036H54.7149V37.6074H54.7132V37.6112H54.7112V37.615H54.7095V37.6187H54.7075V37.6225H54.7058V37.6244H54.7037V37.6282H54.702V37.6319H54.7V37.6357H54.698V37.6395H54.6963V37.6433H54.6942V37.647H54.6925V37.6489H54.6905V37.6527H54.6888V37.6565H54.6868V37.6602H54.6851V37.6621H54.683V37.6659H54.681V37.6697H54.6793V37.6734H54.6772V37.6772H54.6755V37.6791H54.6735V37.6829H54.6718V37.6866H54.6698V37.6904H54.6681V37.6923H54.666V37.6961H54.664V37.6999H54.6623V37.7037H54.6603V37.7055H54.6586V37.7093H54.6565V37.7131H54.6548V37.7169H54.6528V37.7187H54.6508V37.7225H54.6491V37.7263H54.647V37.7301H54.6453V37.7319H54.6433V37.7357H54.6416V37.7395H54.6396V37.7433H54.6379V37.7451H54.6358V37.7489H54.6338V37.7527H54.6321V37.7546H54.6301V37.7583H54.6284V37.7621H54.6263V37.764H54.6246V37.7678H54.6226V37.7716H54.6209V37.7734H54.6189V37.7772H54.6168V37.781H54.6151V37.7829H54.6131V37.7867H54.6114V37.7904H54.6094V37.7923H54.6077V37.7961H54.6056V37.7999H54.6039V37.8018H54.6019V37.8055H54.5998V37.8074H54.5982V37.8112H54.5961V37.815H54.5944V37.8168H54.5924V37.8206H54.5907V37.8244H54.5886V37.8263H54.587V37.8301H54.5849V37.8338H54.5829V37.8357H54.5812V37.8395H54.5791V37.8414H54.5774V37.8451H54.5754V37.8489H54.5737V37.8508H54.5717V37.8546H54.5696V37.8565H54.5679V37.8602H54.5659V37.8621H54.5642V37.8659H54.5622V37.8697H54.5605V37.8716H54.5584V37.8754H54.5567V37.8772H54.5547V37.881H54.5527V37.8829H54.551V37.8867H54.5489V37.8904H54.5472V37.8923H54.5452V37.8961H54.5435V37.898H54.5415V37.9018H54.5398V37.9036H54.5377V37.9074H54.5357V37.9112H54.534V37.9131H54.532V37.9168H54.5303V37.9187H54.5282V37.9225H54.5265V37.9244H54.5245V37.9282H54.5228V37.93H54.5208V37.9338H54.5187V37.9357H54.517V37.9395H54.515V37.9414H54.5133V37.9451H54.5113V37.947H54.5096V37.9508H54.5075V37.9527H54.5058V37.9565H54.5038V37.9584H54.5017V37.9621H54.5001V37.964H54.498V37.9678H54.4963V37.9697H54.4943V37.9716H54.4926V37.9753H54.4905V37.9772H54.4885V37.981H54.4868V37.9829H54.4848V37.9867H54.4831V37.9885H54.481V37.9923H54.4793V37.9942H54.4773V37.998H54.4756V37.9999H54.4736V38.0036H54.4715V38.0055H54.4698V38.0093H54.4678V38.0112H54.4661V38.015H54.4641V38.0168H54.4624V38.0187H54.4603V38.0225H54.4586V38.0244H54.4566V38.0282H54.4546V38.03H54.4529V38.0319H54.4508V38.0357H54.4491V38.0376H54.4471V38.0414H54.4454V38.0432H54.4434V38.0452H54.4417V38.0489H54.4396V38.0508H54.4376V38.0546H54.4359V38.0565H54.4339V38.0584H54.4322V38.0621H54.4301V38.064H54.4284V38.0678H54.4264V38.0697H54.4247V38.0716H54.4227V38.0753H54.4206V38.0772H54.4189V38.081H54.4169V38.0829H54.4152V38.0848H54.4131V38.0885H54.4114V38.0904H54.4094V38.0942H54.4074V38.0961H54.4057V38.098H54.4036V38.1017H54.4019V38.1036H54.3999V38.1055H54.3982V38.1093H54.3962V38.1112H54.3945V38.1131H54.3924V38.1168H54.3904V38.1187H54.3887V38.1206H54.3867V38.1244H54.385V38.1263H54.3829V38.1282H54.3812V38.132H54.3792V38.1338H54.3775V38.1357H54.3755V38.1395H54.3734V38.1414H54.3717V38.1433H54.3697V38.147H54.368V38.1489H54.366V38.1508H54.3643V38.1546H54.3622V38.1565H54.3605V38.1584H54.3585V38.1621H54.3565V38.164H54.3548V38.1659H54.3527V38.1697H54.351V38.1716H54.349V38.1734H54.3473V38.1772H54.3453V38.1791H54.3436V38.181H54.3415V38.1829H54.3395V38.1867H54.3378V38.1885H54.3358V38.1904H54.3341V38.1923H54.332V38.1961H54.3303V38.198H54.3283V38.1999H54.3262V38.2017H54.3245V38.2055H54.3225V38.2074H54.3208V38.2093H54.3188V38.2112H54.3171V38.2149H54.315V38.2169H54.3133V38.2187H54.3113V38.2206H54.3093V38.2244H54.3076V38.2263H54.3055V38.2282H54.3038V38.2301H54.3018V38.2338H54.3001V38.2357H54.2981V38.2376H54.2964V38.2395H54.2943V38.2433H54.2923V38.2452H54.2906V38.247H54.2886V38.2508H54.2869V38.2527H54.2848V38.2546H54.2831V38.2565H54.2811V38.2602H54.2794V38.2621H54.2774V38.264H54.2753V38.2659H54.2736V38.2678H54.2716V38.2697H54.2699V38.2734H54.2679V38.2753H54.2662V38.2772H54.2641V38.2791H54.2624V38.281H54.2604V38.2848H54.2584V38.2866H54.2567V38.2885H54.2546V38.2904H54.2529V38.2923H54.2509V38.2961H54.2492V38.298H54.2472V38.2999H54.2451V38.3017H54.2434V38.3036H54.2414V38.3055H54.2397V38.3093H54.2376V38.3112H54.2359V38.3131H54.2339V38.315H54.2322V38.3169H54.2302V38.3206H54.2281V38.3225H54.2264V38.3244H54.2244V38.3263H54.2227V38.3282H54.2207V38.3319H54.219V38.3338H54.2169V38.3357H54.2152V38.3376H54.2132V38.3395H54.2112V38.3414H54.2095V38.3451H54.2074V38.347H54.2057V38.3489H54.2037V38.3508H54.202V38.3527H54.2V38.3546H54.1983V38.3565H54.1962V38.3584H54.1942V38.3621H54.1925V38.364H54.1905V38.3659H54.1888V38.3678H54.1867V38.3697H54.185V38.3716H54.183V38.3734H54.181V38.3753H54.1793V38.3791H54.1772V38.381H54.1755V38.3829H54.1735V38.3848H54.1718V38.3866H54.1698V38.3886H54.1681V38.3904H54.166V38.3923H54.164V38.3961H54.1623V38.398H54.1602V38.3999H54.1586V38.4018H54.1565V38.4037H54.1548V38.4055H54.1528V38.4074H54.1511V38.4093H54.149V38.4131H54.147V38.415H54.1453V38.4169H54.1433V38.4187H54.1416V38.4206H54.1395V38.4225H54.1378V38.4244H54.1358V38.4263H54.1341V38.4282H54.1321V38.4301H54.13V38.4319H54.1283V38.4338H54.1263V38.4357H54.1246V38.4376H54.1226V38.4414H54.1209V38.4433H54.1188V38.4451H54.1171V38.447H54.1151V38.4489H54.1131V38.4508H54.1114V38.4527H54.1093V38.4546H54.1076V38.4565H54.1056V38.4583H54.1039V38.4602H54.1019V38.4621H54.0998V38.464H54.0981V38.4659H54.0961V38.4678H54.0944V38.4715H54.0924V38.4734H54.0907V38.4753H54.0886V38.4772H54.0869V38.4791H54.0849V38.481H54.0829V38.4829H54.0812V38.4848H54.0791V38.4867H54.0774V38.4886H54.0754V38.4904H54.0737V38.4923H54.0717V38.4942H54.07V38.4961H54.0679V38.498H54.0659V38.4999H54.0642V38.5018H54.0621V38.5036H54.0604V38.5055H54.0584V38.5074H54.0567V38.5093H54.0547V38.5112H54.053V38.5131H54.0509V38.515H54.0489V38.5168H54.0472V38.5187H54.0452V38.5206H54.0435V38.5225H54.0414V38.5244H54.0397V38.5263H54.0377V38.5282H54.036V38.5301H54.034V38.5319H54.0319V38.5338H54.0302V38.5357H54.0282V38.5376H54.0265V38.5395H54.0245V38.5414H54.0228V38.5433H54.0207V38.5451H54.0187V38.547H54.017V38.5489H54.015V38.5508H54.0133V38.5527H54.0112V38.5546H54.0095V38.5565H54.0075V38.5583H54.0058V38.5603H54.0038V38.5621H54.0017V38.564H54V38.5659H53.998V38.5678H53.9963V38.5697H53.9943V38.5716H53.9926V38.5735H53.9905V38.5753H53.9888V38.5772H53.9868V38.5791H53.9847V38.581H53.983V38.5829H53.981V38.5848H53.9793V38.5867H53.9773V38.5886H53.9756V38.5904H53.9735V38.5923H53.9718V38.5942H53.9698V38.5961H53.9678V38.598H53.9661V38.5999H53.9623V38.6018H53.9603V38.6036H53.9586V38.6055H53.9566V38.6074H53.9549V38.6093H53.9528V38.6112H53.9508V38.6131H53.9491V38.615H53.9471V38.6168H53.9454V38.6187H53.9433V38.6206H53.9416V38.6225H53.9396V38.6244H53.9376V38.6263H53.9359V38.6282H53.9338V38.63H53.9321V38.6319H53.9301V38.6338H53.9284V38.6357H53.9247V38.6376H53.9226V38.6395H53.9206V38.6414H53.9189V38.6432H53.9169V38.6451H53.9152V38.647H53.9131V38.6489H53.9114V38.6508H53.9094V38.6527H53.9057V38.6546H53.9036V38.6565H53.9019V38.6584H53.8999V38.6603H53.8982V38.6621H53.8961V38.664H53.8945V38.6659H53.8924V38.6678H53.8907V38.6697H53.8866V38.6716H53.8849V38.6735H53.8829V38.6753H53.8812V38.6772H53.8792V38.6791H53.8775V38.681H53.8754V38.6829H53.8737V38.6848H53.8717V38.6867H53.868V38.6885H53.8659V38.6904H53.8642V38.6923H53.8622V38.6942H53.8605V38.6961H53.8585V38.698H53.8564V38.6999H53.8547V38.7017H53.8527V38.7036H53.849V38.7055H53.8473V38.7074H53.8452V38.7093H53.8435V38.7112H53.8415V38.7131H53.8395V38.715H53.8357V38.7168H53.834V38.7187H53.832V38.7206H53.8303V38.7225H53.8283V38.7244H53.8266V38.7263H53.8225V38.7282H53.8208V38.73H53.8188V38.7319H53.8171V38.7338H53.815V38.7357H53.8113V38.7376H53.8096V38.7395H53.8076V38.7414H53.8055V38.7433H53.8038V38.7452H53.8018V38.747H53.798V38.7489H53.7963V38.7508H53.7943V38.7527H53.7926V38.7546H53.7906V38.7565H53.7885V38.7584H53.7848V38.7603H53.7831V38.7621H53.7811V38.764H53.7794V38.7659H53.7773V38.7678H53.7736V38.7697H53.7716V38.7716H53.7699V38.7735H53.7678V38.7753H53.7661V38.7772H53.7624V38.7791H53.7604V38.781H53.7583V38.7829H53.7566V38.7848H53.7529V38.7867H53.7509V38.7885H53.7492V38.7904H53.7471V38.7923H53.7434V38.7942H53.7414V38.7961H53.7397V38.798H53.7376V38.7999H53.7339V38.8017H53.7322V38.8036H53.7302V38.8055H53.7285V38.8074H53.7244V38.8093H53.7227V38.8112H53.7206V38.8131H53.719V38.8149H53.7152V38.8168H53.7132V38.8187H53.7115V38.8206H53.7094V38.8225H53.7057V38.8244H53.7037V38.8263H53.702V38.8282H53.6999V38.8301H53.6962V38.832H53.6942V38.8338H53.6925V38.8357H53.6904V38.8376H53.6867V38.8395H53.685V38.8414H53.683V38.8433H53.6792V38.8452H53.6772V38.847H53.6755V38.8489H53.6718V38.8508H53.6697V38.8527H53.668V38.8546H53.6643V38.8565H53.6623V38.8584H53.6602V38.8602H53.6565V38.8621H53.6548V38.864H53.6528V38.8659H53.649V38.8678H53.6473V38.8697H53.6453V38.8716H53.6416V38.8734H53.6395V38.8753H53.6378V38.8772H53.6341V38.8791H53.632V38.881H53.6304V38.8829H53.6283V38.8848H53.6246V38.8867H53.6225V38.8885H53.6208V38.8904H53.6171V38.8923H53.6151V38.8942H53.613V38.8961H53.6093V38.898H53.6076V38.8999H53.6039V38.9017H53.6018V38.9036H53.6001V38.9055H53.5961V38.9074H53.5944V38.9093H53.5906V38.9112H53.5886V38.9131H53.5869V38.9149H53.5832V38.9169H53.5811V38.9187H53.5774V38.9206H53.5754V38.9225H53.5737V38.9244H53.5699V38.9263H53.5679V38.9282H53.5642V38.9301H53.5621V38.9319H53.5604V38.9338H53.5567V38.9357H53.5547V38.9376H53.5509V38.9395H53.5489V38.9414H53.5472V38.9433H53.5434V38.9452H53.5414V38.947H53.5377V38.9489H53.536V38.9508H53.5339V38.9527H53.5302V38.9546H53.5282V38.9565H53.5244V38.9584H53.5227V38.9602H53.519V38.9621H53.517V38.964H53.5132V38.9659H53.5112V38.9678H53.5075V38.9697H53.5058V38.9716H53.502V38.9734H53.5V38.9753H53.4963V38.9772H53.4942V38.9791H53.4905V38.981H53.4888V38.9829H53.4851V38.9848H53.483V38.9866H53.4793V38.9885H53.4773V38.9904H53.4735V38.9923H53.4718V38.9942H53.4677V38.9961H53.4661V38.998H53.4623V38.9999H53.4603V39.0018H53.4565V39.0037H53.4549V39.0055H53.4508V39.0074H53.4491V39.0093H53.4453V39.0112H53.4433V39.0131H53.4396V39.015H53.4379V39.0169H53.4338V39.0187H53.4321V39.0206H53.4284V39.0225H53.4263V39.0244H53.4226V39.0263H53.4189V39.0282H53.4168V39.0301H53.4131V39.0319H53.4114V39.0338H53.4077V39.0357H53.4039V39.0376H53.4019V39.0395H53.3982V39.0414H53.3961V39.0433H53.3924V39.0451H53.3887V39.047H53.3866V39.0489H53.3829V39.0508H53.3812V39.0527H53.3775V39.0546H53.3737V39.0565H53.3717V39.0583H53.3679V39.0602H53.3659V39.0621H53.3622V39.064H53.3605V39.0659H53.3567V39.0678H53.3527V39.0697H53.351V39.0716H53.3472V39.0734H53.3435V39.0753H53.3415V39.0772H53.3377V39.0791H53.334V39.081H53.332V39.0829H53.3282V39.0848H53.3245V39.0866H53.3228V39.0886H53.3187V39.0904H53.315V39.0923H53.3113V39.0942H53.3096V39.0961H53.3055V39.098H53.3018V39.0999H53.3001V39.1018H53.2963V39.1036H53.2926V39.1055H53.2885V39.1074H53.2868V39.1093H53.2831V39.1112H53.2793V39.1131H53.2773V39.115H53.2736V39.1169H53.2698V39.1187H53.2678V39.1206H53.2641V39.1225H53.2603V39.1244H53.2566V39.1263H53.2546V39.1282H53.2508V39.1301H53.2471V39.1319H53.2434V39.1338H53.2396V39.1357H53.2376V39.1376H53.2339V39.1395H53.2301V39.1414H53.2264V39.1433H53.2227V39.1451H53.2189V39.147H53.2169V39.1489H53.2132V39.1508H53.2094V39.1527H53.2057V39.1546H53.202V39.1565H53.1982V39.1583H53.1962V39.1602H53.1924V39.1621H53.1887V39.164H53.185V39.1659H53.1812V39.1678H53.1792V39.1697H53.1755V39.1716H53.1717V39.1735H53.168V39.1753H53.1643V39.1772H53.1605V39.1791H53.1565V39.181H53.1527V39.1829H53.149V39.1848H53.1473V39.1867H53.1432V39.1886H53.1395V39.1904H53.1358V39.1923H53.132V39.1942H53.1283V39.1961H53.1246V39.198H53.1208V39.1999H53.1171V39.2018H53.1134V39.2036H53.1093V39.2055H53.1055V39.2074H53.1018V39.2093H53.0981V39.2112H53.0943V39.2131H53.0906V39.215H53.0869V39.2168H53.0831V39.2187H53.0794V39.2206H53.0753V39.2225H53.0716V39.2244H53.0679V39.2263H53.0641V39.2282H53.0604V39.23H53.0567V39.2319H53.0529V39.2338H53.0492V39.2357H53.0451V39.2376H53.0414V39.2395H53.0377V39.2414H53.0322V39.2433H53.0281V39.2451H53.0244V39.247H53.0207V39.2489H53.0169V39.2508H53.0132V39.2527H53.0095V39.2546H53.0057V39.2565H53.002V39.2583H52.9983V39.2603H52.9925V39.2621H52.9888V39.264H52.985V39.2659H52.981V39.2678H52.9772V39.2697H52.9735V39.2716H52.9698V39.2735H52.964V39.2753H52.9603V39.2772H52.9565V39.2791H52.9528V39.281H52.947V39.2829H52.9433V39.2848H52.9396V39.2867H52.9358V39.2885H52.93V39.2904H52.9263V39.2923H52.9226V39.2942H52.9168V39.2961H52.9131V39.298H52.9093V39.2999H52.9056V39.3018H52.8998V39.3036H52.8961V39.3055H52.8924V39.3074H52.8886V39.3093H52.8829V39.3112H52.8791V39.3131H52.8754V39.315H52.87V39.3168H52.8659V39.3187H52.8605V39.3206H52.8567V39.3225H52.853V39.3244H52.8472V39.3263H52.8435V39.3282H52.8377V39.33H52.834V39.3319H52.8282V39.3338H52.8245V39.3357H52.8187V39.3376H52.815V39.3395H52.8095V39.3414H52.8058V39.3432H52.8V39.3451H52.7963V39.347H52.7926V39.3489H52.7868V39.3508H52.7831V39.3527H52.7773V39.3546H52.7736V39.3565H52.7678V39.3584H52.7624V39.3603H52.7586V39.3621H52.7528V39.364H52.7471V39.3659H52.7433V39.3678H52.7376V39.3697H52.7321V39.3716H52.7284V39.3735H52.7226V39.3753H52.7169V39.3772H52.7131V39.3791H52.7077V39.381H52.7019V39.3829H52.6982V39.3848H52.6924V39.3867H52.6867V39.3885H52.6829V39.3904H52.6775V39.3923H52.6717V39.3942H52.6659V39.3961H52.6622V39.398H52.6564V39.3999H52.651V39.4017H52.6452V39.4036H52.6395V39.4055H52.634V39.4074H52.6283V39.4093H52.6225V39.4112H52.6171V39.4131H52.6113V39.4149H52.6055V39.4168H52.6001V39.4187H52.5943V39.4206H52.5885V39.4225H52.5831V39.4244H52.5794V39.4263H52.5736V39.4282H52.5678V39.43H52.5624V39.432H52.5566V39.4338H52.5492V39.4357H52.5434V39.4376H52.5376V39.4395H52.5322V39.4414H52.5244V39.4433H52.519V39.4452H52.5132V39.447H52.5074V39.4489H52.4999V39.4508H52.4942V39.4527H52.4887V39.4546H52.483V39.4565H52.4772V39.4584H52.4697V39.4602H52.4643V39.4621H52.4585V39.464H52.4528V39.4659H52.4453V39.4678H52.4378V39.4697H52.4321V39.4716H52.4246V39.4735H52.4188V39.4753H52.4113V39.4772H52.4039V39.4791H52.3981V39.481H52.3906V39.4829H52.3849V39.4848H52.3774V39.4867H52.3716V39.4885H52.3642V39.4904H52.3567V39.4923H52.3509V39.4942H52.3435V39.4961H52.336V39.498H52.3282V39.4999H52.3207V39.5017H52.3132V39.5036H52.3058V39.5055H52.298V39.5074H52.2905V39.5093H52.283V39.5112H52.2756V39.5131H52.2678V39.5149H52.2603V39.5168H52.2528V39.5187H52.2454V39.5206H52.2379V39.5225H52.2301V39.5244H52.2209V39.5263H52.2131V39.5282H52.2036V39.5301H52.1961V39.532H52.1866V39.5338H52.1792V39.5357H52.1697V39.5376H52.1622V39.5395H52.1527V39.5414H52.1452V39.5433H52.1357V39.5452H52.1265V39.547H52.1187V39.5489H52.1096V39.5508H52.098V39.5527H52.0885V39.5546H52.0794V39.5565H52.0699V39.5584H52.0603V39.5602H52.0508V39.5621H52.0396V39.564H52.0301V39.5659H52.0206V39.5678H52.0115V39.5697H51.9999V39.5716H51.9887V39.5734H51.9775V39.5753H51.966V39.5772H51.9548V39.5791H51.9432V39.581H51.932V39.5829H51.9208V39.5848H51.9093V39.5866H51.8981V39.5885H51.8869V39.5904H51.8716V39.5923H51.8584V39.5942H51.8451V39.5961H51.8322V39.598H51.817V39.5999H51.8037V39.6017H51.7905V39.6037H51.7772V39.6055H51.7623V39.6074H51.7453V39.6093H51.7284V39.6112H51.7114V39.6131H51.6944V39.615H51.6774V39.6169H51.6605V39.6187H51.6435V39.6206H51.6207V39.6225H51.6V39.6244H51.5773V39.6263H51.5546V39.6282H51.5338V39.6301H51.5077V39.6319H51.4755V39.6338H51.4452V39.6357H51.4133V39.6376H51.3736V39.6395H51.3207V39.6414H51.268V39.6433" fill="url(#paint6_linear_233_152)"/>
            </g>
        </g>
        <mask id="mask8_233_152" style="mask-type:luminance" maskUnits="userSpaceOnUse" x="11" y="30" width="10" height="14">
            <path d="M14.0174 30.4804C15.5175 30.3062 17.6685 30.2434 19.9943 30.776C19.2281 34.7789 19.3438 38.951 20.23 43.271H13.67C12.6241 43.271 11.7323 42.5111 11.5692 41.4781C11.2423 39.4074 10.8426 35.927 11.2688 33.1317C11.4826 31.7287 12.6078 30.6442 14.0174 30.4804Z" fill="white"/>
        </mask>
        <g mask="url(#mask8_233_152)">
            <path d="M14.0174 30.4805C15.5175 30.3064 17.6685 30.2434 19.9943 30.776C19.2281 34.779 19.3438 38.951 20.23 43.2711H13.67C12.6241 43.2711 11.7323 42.5113 11.5692 41.4781C11.2423 39.4075 10.8426 35.927 11.2687 33.1316C11.4826 31.7287 12.6078 30.6442 14.0174 30.4805Z" fill="url(#paint7_linear_233_152)"/>
        </g>
        <path d="M17.9543 33.5459H12.8434C12.6699 33.5459 12.5168 33.4551 12.4339 33.3025C12.351 33.1501 12.3578 32.9722 12.452 32.8266C12.4915 32.7657 12.5729 32.7485 12.6338 32.7877C12.6947 32.827 12.7122 32.9085 12.6727 32.9695C12.6316 33.0329 12.6287 33.1105 12.6648 33.177C12.7009 33.2434 12.7677 33.283 12.8434 33.283H17.9543C18.0664 33.283 18.1576 33.192 18.1576 33.0797V32.7161C18.1576 32.604 18.0664 32.513 17.9543 32.513H12.8054C12.7329 32.513 12.674 32.4542 12.674 32.3814C12.674 32.309 12.7329 32.2501 12.8054 32.2501H17.9543C18.2114 32.2501 18.4204 32.4593 18.4204 32.7161V33.0797C18.4204 33.3368 18.2114 33.5459 17.9543 33.5459Z" fill="#91B3FA"/>
        <path d="M17.4985 35.8095H12.3875C12.2141 35.8095 12.061 35.7185 11.9781 35.5663C11.8952 35.4139 11.902 35.236 11.9962 35.0904C12.0357 35.0294 12.1171 35.0122 12.178 35.0514C12.2389 35.0908 12.2563 35.1722 12.2169 35.2332C12.1758 35.2968 12.1729 35.3743 12.209 35.4407C12.2451 35.5071 12.3119 35.5467 12.3875 35.5467H17.4985C17.6106 35.5467 17.7017 35.4555 17.7017 35.3436V34.98C17.7017 34.8679 17.6106 34.7767 17.4985 34.7767H12.3496C12.277 34.7767 12.2182 34.7179 12.2182 34.6452C12.2182 34.5725 12.277 34.5137 12.3496 34.5137H17.4985C17.7555 34.5137 17.9646 34.7229 17.9646 34.98V35.3436C17.9646 35.6005 17.7555 35.8095 17.4985 35.8095Z" fill="#91B3FA"/>
        <mask id="mask9_233_152" style="mask-type:luminance" maskUnits="userSpaceOnUse" x="23" y="22" width="26" height="9">
            <path d="M23.7939 30.3138C23.7383 30.3138 23.6866 30.2779 23.6688 30.2221C23.6468 30.1528 23.6851 30.0791 23.7541 30.057L47.9058 22.3715C47.919 22.3674 47.9324 22.3653 47.9456 22.3653C48.0013 22.3653 48.0532 22.4009 48.0709 22.4568C48.093 22.526 48.0547 22.6 47.9856 22.6221L23.8339 30.3076C23.8207 30.3117 23.8071 30.3138 23.7939 30.3138Z" fill="white"/>
        </mask>
        <g mask="url(#mask9_233_152)">
            <path d="M23.7939 30.3138C23.7383 30.3138 23.6866 30.2778 23.6688 30.2221C23.6468 30.1528 23.6851 30.079 23.7541 30.0569L47.9059 22.3716C47.9189 22.3675 47.9325 22.3654 47.9458 22.3654C48.0012 22.3654 48.0531 22.4011 48.0708 22.4569C48.0929 22.5262 48.0546 22.5999 47.9856 22.622L23.8339 30.3076C23.8207 30.3118 23.8071 30.3138 23.7939 30.3138Z" fill="url(#paint8_linear_233_152)"/>
        </g>
        <mask id="mask10_233_152" style="mask-type:luminance" maskUnits="userSpaceOnUse" x="20" y="30" width="2" height="2">
            <path d="M20.5281 31.6489C20.4763 31.6489 20.4272 31.6179 20.4065 31.567C20.3789 31.5 20.4112 31.4232 20.4783 31.3957L21.7214 30.8875C21.7376 30.8809 21.7544 30.8777 21.771 30.8777C21.8229 30.8777 21.8719 30.9087 21.8927 30.9596C21.9202 31.0268 21.888 31.1036 21.8208 31.1309L20.5778 31.6391C20.5615 31.6457 20.5446 31.6489 20.5281 31.6489Z" fill="white"/>
        </mask>
        <g mask="url(#mask10_233_152)">
            <path d="M20.528 31.6491C20.4761 31.6491 20.4271 31.6181 20.4063 31.5672C20.3788 31.5003 20.4111 31.4235 20.4782 31.3958L21.7212 30.8877C21.7375 30.881 21.7542 30.8779 21.7709 30.8779C21.8227 30.8779 21.8718 30.9089 21.8926 30.9597C21.9201 31.0269 21.8878 31.1038 21.8207 31.1311L20.5777 31.6392C20.5614 31.6457 20.5445 31.6491 20.528 31.6491Z" fill="url(#paint9_linear_233_152)"/>
        </g>
        <path d="M17.9543 38.4606H12.8433C12.6699 38.4606 12.5169 38.3694 12.4339 38.2173C12.351 38.0648 12.3578 37.8869 12.452 37.7411C12.4915 37.6802 12.5729 37.6631 12.6338 37.7022C12.6947 37.7415 12.7122 37.823 12.6727 37.8839C12.6316 37.9473 12.6286 38.0251 12.6648 38.0916C12.701 38.1578 12.7677 38.1975 12.8433 38.1975H17.9543C18.0664 38.1975 18.1576 38.1065 18.1576 37.9943V37.6309C18.1576 37.5187 18.0664 37.4276 17.9543 37.4276H12.8054C12.7329 37.4276 12.674 37.3686 12.674 37.2961C12.674 37.2236 12.7329 37.1647 12.8054 37.1647H17.9543C18.2113 37.1647 18.4204 37.3738 18.4204 37.6309V37.9943C18.4204 38.2513 18.2113 38.4606 17.9543 38.4606Z" fill="#91B3FA"/>
        <path d="M18.4328 41.403H13.3219C13.1484 41.403 12.9954 41.3121 12.9125 41.1596C12.8295 41.0072 12.8363 40.8292 12.9305 40.6836C12.97 40.6226 13.0514 40.6055 13.1123 40.6445C13.1732 40.684 13.1906 40.7655 13.1512 40.8264C13.1101 40.89 13.1072 40.9675 13.1433 41.034C13.1795 41.1004 13.2462 41.14 13.3219 41.14H18.4328C18.5449 41.14 18.6361 41.0491 18.6361 40.937V40.5732C18.6361 40.4611 18.5449 40.37 18.4328 40.37H13.284C13.2114 40.37 13.1525 40.3111 13.1525 40.2385C13.1525 40.166 13.2114 40.1072 13.284 40.1072H18.4328C18.6899 40.1072 18.899 40.3162 18.899 40.5732V40.937C18.899 41.1938 18.6899 41.403 18.4328 41.403Z" fill="#91B3FA"/>
        <path d="M22.9976 57.4011C22.7621 57.4011 22.5242 57.3757 22.2866 57.324C21.2476 57.0976 20.4015 56.4125 19.9657 55.4442L15.8824 46.3725C15.8525 46.3064 15.8821 46.2285 15.9482 46.1987C16.0144 46.1689 16.0922 46.1985 16.122 46.2647L20.2053 55.3362C20.6066 56.2277 21.3857 56.8587 22.3425 57.0672C23.2831 57.2723 24.2346 57.0289 24.9536 56.3996C24.9921 56.3659 25.031 56.3311 25.0698 56.2957C25.1234 56.2468 25.2064 56.2504 25.2555 56.3042C25.3044 56.3576 25.3006 56.4408 25.247 56.4898C25.2066 56.5266 25.1666 56.5625 25.1266 56.5974C24.5261 57.1228 23.7763 57.4011 22.9976 57.4011Z" fill="#91B3FA"/>
        <path d="M15.3985 45.1087C15.3483 45.1087 15.3005 45.0798 15.2786 45.0311L14.823 44.0192C14.7932 43.953 14.8227 43.8753 14.8889 43.8455C14.9551 43.8157 15.0329 43.8453 15.0627 43.9113L15.5182 44.9232C15.548 44.9894 15.5185 45.0672 15.4523 45.0972C15.4348 45.1049 15.4165 45.1087 15.3985 45.1087Z" fill="#91B3FA"/>
        <path d="M54.5853 34.7768C54.5168 34.7768 54.459 34.7237 54.4543 34.6546C54.3634 33.3745 53.9195 32.42 53.1356 31.8181C51.7794 30.7767 49.8443 31.1346 49.8248 31.1383C49.753 31.152 49.6845 31.1057 49.6707 31.0342C49.657 30.963 49.704 30.8942 49.7751 30.8801C49.8591 30.8643 51.8465 30.4971 53.2954 31.6096C54.1418 32.2592 54.6202 33.2775 54.7162 34.6358C54.7216 34.7083 54.6672 34.7711 54.5947 34.7764C54.5913 34.7764 54.5883 34.7768 54.5853 34.7768Z" fill="#91B3FA"/>
        <mask id="mask11_233_152" style="mask-type:luminance" maskUnits="userSpaceOnUse" x="53" y="39" width="9" height="5">
            <path d="M61.5238 43.4902L57.6072 43.0013L58.1151 41.0083L53.7859 39.6842L60.1412 39.9957L59.3004 42.0534L61.5238 43.4902Z" fill="white"/>
        </mask>
        <g mask="url(#mask11_233_152)">
            <path d="M61.5239 43.4901L57.6072 43.0013L58.1152 41.0082L53.7859 39.6841L60.1413 39.9956L59.3004 42.0533L61.5239 43.4901Z" fill="url(#paint10_linear_233_152)"/>
        </g>
        <mask id="mask12_233_152" style="mask-type:luminance" maskUnits="userSpaceOnUse" x="54" y="49" width="6" height="7">
            <path d="M58.6802 55.0159L56.0419 53.1359L57.1857 51.8943L54.5747 49.25L59.044 51.9526L57.6345 53.1111L58.6802 55.0159Z" fill="white"/>
        </mask>
        <g mask="url(#mask12_233_152)">
            <path d="M58.6801 55.0159L56.0416 53.1359L57.1856 51.8944L54.5746 49.2501L59.0438 51.9527L57.6344 53.1112L58.6801 55.0159Z" fill="url(#paint11_linear_233_152)"/>
        </g>
        <mask id="mask13_233_152" style="mask-type:luminance" maskUnits="userSpaceOnUse" x="55" y="19" width="8" height="8">
            <path d="M62.6377 19.354L59.5355 24.2372L58.0217 22.9843L55.1096 26.1824L57.9747 20.8211L59.4083 22.3877L62.6377 19.354Z" fill="white"/>
        </mask>
        <g mask="url(#mask13_233_152)">
            <path d="M62.6379 19.354L59.5356 24.2371L58.0219 22.9843L55.1099 26.1823L57.9751 20.8212L59.4084 22.3875L62.6379 19.354Z" fill="url(#paint12_linear_233_152)"/>
        </g>
    </g>
    <defs>
        <linearGradient id="paint0_linear_233_152" x1="129.351" y1="66.5685" x2="51.7273" y2="-17.2156" gradientUnits="userSpaceOnUse">
            <stop stop-color="#DAE3FE"/>
            <stop offset="1" stop-color="#E9EFFD"/>
        </linearGradient>
        <linearGradient id="paint1_linear_233_152" x1="58.7874" y1="-50.0426" x2="24.5211" y2="5.14373" gradientUnits="userSpaceOnUse">
            <stop stop-color="#DAE3FE"/>
            <stop offset="1" stop-color="#E9EFFD"/>
        </linearGradient>
        <linearGradient id="paint2_linear_233_152" x1="15.5883" y1="37.833" x2="23.0173" y2="59.4566" gradientUnits="userSpaceOnUse">
            <stop stop-color="#09005D"/>
            <stop offset="1" stop-color="#1A0F91"/>
        </linearGradient>
        <linearGradient id="paint3_linear_233_152" x1="-24.2227" y1="67.2349" x2="59.0126" y2="20.5528" gradientUnits="userSpaceOnUse">
            <stop stop-color="#E1473D"/>
            <stop offset="1" stop-color="#E9605A"/>
        </linearGradient>
        <linearGradient id="paint4_linear_233_152" x1="169.023" y1="-19.4535" x2="129.383" y2="-5.42157" gradientUnits="userSpaceOnUse">
            <stop stop-color="#FEBBBA"/>
            <stop offset="1" stop-color="#FF928E"/>
        </linearGradient>
        <linearGradient id="paint5_linear_233_152" x1="91.1826" y1="9.09959" x2="134.598" y2="8.63772" gradientUnits="userSpaceOnUse">
            <stop stop-color="#E1473D"/>
            <stop offset="1" stop-color="#E9605A"/>
        </linearGradient>
        <linearGradient id="paint6_linear_233_152" x1="105.249" y1="-0.972496" x2="75.4143" y2="16.4508" gradientUnits="userSpaceOnUse">
            <stop stop-color="#09005D"/>
            <stop offset="1" stop-color="#1A0F91"/>
        </linearGradient>
        <linearGradient id="paint7_linear_233_152" x1="46.5929" y1="5.82698" x2="33.4252" y2="17.1137" gradientUnits="userSpaceOnUse">
            <stop stop-color="#09005D"/>
            <stop offset="1" stop-color="#1A0F91"/>
        </linearGradient>
        <linearGradient id="paint8_linear_233_152" x1="-22.8128" y1="67.3959" x2="55.5774" y2="23.4311" gradientUnits="userSpaceOnUse">
            <stop stop-color="#F6C6C3"/>
            <stop offset="1" stop-color="#F8CECC"/>
        </linearGradient>
        <linearGradient id="paint9_linear_233_152" x1="-18.5636" y1="67.881" x2="45.2252" y2="32.1053" gradientUnits="userSpaceOnUse">
            <stop stop-color="#F6C6C3"/>
            <stop offset="1" stop-color="#F8CECC"/>
        </linearGradient>
        <linearGradient id="paint10_linear_233_152" x1="121.069" y1="14.7545" x2="86.1535" y2="-4.01868" gradientUnits="userSpaceOnUse">
            <stop stop-color="#E1473D"/>
            <stop offset="1" stop-color="#E9605A"/>
        </linearGradient>
        <linearGradient id="paint11_linear_233_152" x1="108.818" y1="33.9768" x2="87.8851" y2="2.20832" gradientUnits="userSpaceOnUse">
            <stop stop-color="#E1473D"/>
            <stop offset="1" stop-color="#E9605A"/>
        </linearGradient>
        <linearGradient id="paint12_linear_233_152" x1="118.564" y1="-25.8705" x2="78.6794" y2="3.56427" gradientUnits="userSpaceOnUse">
            <stop stop-color="#E1473D"/>
            <stop offset="1" stop-color="#E9605A"/>
        </linearGradient>
        <clipPath id="clip0_233_152">
            <rect width="70" height="70" fill="white"/>
        </clipPath>
    </defs>
</svg>