<svg xmlns="http://www.w3.org/2000/svg" width="70" height="70" viewBox="0 0 70 70" fill="none">
    <g clip-path="url(#clip0_233_1932)">
        <path d="M69.9999 70H0V0.000106812H69.9999V70Z" />
        <mask id="mask0_233_1932" style="mask-type:luminance" maskUnits="userSpaceOnUse" x="8" y="8" width="54" height="54">
            <path d="M31.14 61.4151C30.1244 61.4151 29.1253 61.3659 28.1506 61.2679C25.1376 60.9655 19.0753 60.357 14.4132 55.7911C14.3962 55.7745 14.3797 55.7585 14.3629 55.7417H49.7415C44.157 59.5789 37.3404 61.4151 31.14 61.4151ZM11.8564 52.61C5.92109 43.1866 8.14894 27.9115 16.0765 18.6102C17.2018 17.2898 24.8649 8.58491 36.5981 8.58491C36.8155 8.58491 37.0338 8.58793 37.254 8.59397C46.1153 8.8385 52.2485 13.9538 52.9942 14.5908C53.9359 15.3953 56.0108 17.3045 57.8583 20.3081C62.107 27.2151 62.4098 36.7019 59.1629 44.3645L59.3881 28.8011C59.3881 28.3562 58.8827 27.5028 57.9534 27.5028C57.9189 27.5028 57.8836 27.504 57.848 27.5064L52.8883 27.3781L53.2274 20.413L48.1634 14.8189L20.9195 14.6521C20.9163 14.6521 20.9129 14.6521 20.9097 14.6521C20.0189 14.6521 19.3081 15.3977 19.3523 16.2887L19.848 26.5232L13.4588 26.3577C13.4404 26.3574 13.4221 26.3572 13.4038 26.3572C12.8438 26.3572 12.3058 26.5789 11.9082 26.9751C11.4978 27.3842 11.2732 27.9434 11.2869 28.5226L11.8564 52.61Z" fill="white"/>
        </mask>
        <g mask="url(#mask0_233_1932)">
            <path d="M31.14 61.4151C30.1243 61.4151 29.1253 61.3658 28.1506 61.268C25.1375 60.9655 19.0753 60.357 14.4132 55.7911C14.3962 55.7746 14.3797 55.7585 14.3629 55.7417H49.7413C44.1571 59.5789 37.3404 61.4151 31.14 61.4151ZM11.8565 52.61C5.92109 43.1866 8.14895 27.9115 16.0765 18.6103C17.2018 17.2897 24.8649 8.58499 36.5981 8.58499C36.8155 8.58499 37.0338 8.58801 37.254 8.59403C46.1152 8.83856 52.2484 13.9537 52.994 14.5909C53.936 15.3953 56.0109 17.3044 57.8583 20.3081C62.1068 27.2152 62.4098 36.702 59.1627 44.3646L59.388 28.8011C59.388 28.3561 58.8827 27.5031 57.9532 27.5031C57.9189 27.5031 57.8835 27.5042 57.8477 27.5065L52.8882 27.378L53.2273 20.4132L48.1634 14.8188L20.9195 14.6523C20.9163 14.6523 20.9128 14.6523 20.9096 14.6523C20.0189 14.6523 19.3081 15.3979 19.3523 16.2886L19.8479 26.5234L13.4587 26.3577C13.4404 26.3573 13.4221 26.3573 13.4038 26.3573C12.8438 26.3573 12.3057 26.5788 11.9082 26.9752C11.4978 27.3844 11.2732 27.9435 11.2869 28.5226L11.8565 52.61Z" fill="url(#paint0_linear_233_1932)"/>
        </g>
        <mask id="mask1_233_1932" style="mask-type:luminance" maskUnits="userSpaceOnUse" x="11" y="26" width="49" height="30">
            <path d="M58.1703 55.7417H12.7506C12.2887 55.7417 11.9107 55.3642 11.9107 54.9026L11.8565 52.61L11.287 28.5226C11.2733 27.9434 11.4979 27.3842 11.9083 26.9751C12.3058 26.5789 12.8439 26.3572 13.4039 26.3572C13.4222 26.3572 13.4405 26.3574 13.4588 26.3577L19.848 26.5232L19.8963 27.5209L13.6334 27.353C13.6201 27.3526 13.6068 27.3525 13.5936 27.3525C13.2006 27.3525 12.8231 27.5083 12.544 27.7866C12.2556 28.0743 12.097 28.4679 12.1072 28.8751L12.7399 54.0975C12.7399 54.5345 13.0975 54.8923 13.5346 54.8923H21.2216L21.2267 54.9958H51.5441L51.5492 54.8923H57.075C57.5122 54.8923 57.8697 54.5345 57.8697 54.0975L58.2263 30.4025C58.1856 29.016 57.0024 28.493 56.2403 28.493C56.2186 28.493 56.1973 28.4934 56.1763 28.4943L52.8384 28.4047L52.8884 27.3781L57.848 27.5064C57.8837 27.504 57.919 27.5028 57.9535 27.5028C58.8827 27.5028 59.3882 28.3562 59.3882 28.8011L59.1629 44.3645L59.0103 54.9026C59.0103 55.3642 58.6324 55.7417 58.1703 55.7417Z" fill="white"/>
        </mask>
        <g mask="url(#mask1_233_1932)">
            <path d="M58.1701 55.7417H49.7414H14.3629H12.7506C12.2887 55.7417 11.9107 55.3642 11.9107 54.9027L11.8565 52.61L11.287 28.5228C11.2733 27.9435 11.4979 27.3842 11.9083 26.975C12.3058 26.579 12.8438 26.3571 13.4039 26.3571C13.4221 26.3571 13.4405 26.3575 13.4588 26.3579L19.848 26.5233L19.8963 27.5212L13.6334 27.3532C13.6201 27.3529 13.6068 27.3525 13.5936 27.3525C13.2006 27.3525 12.823 27.5085 12.544 27.7868C12.2556 28.0743 12.097 28.4681 12.1072 28.8751L12.7399 54.0976C12.7399 54.5346 13.0975 54.8923 13.5346 54.8923H21.2216L21.2267 54.9959H51.5438L51.5489 54.8923H57.0749C57.5121 54.8923 57.8695 54.5346 57.8695 54.0976L58.2262 30.4024C58.1854 29.0161 57.0024 28.4933 56.2402 28.4933C56.2183 28.4933 56.1972 28.4936 56.176 28.4944L52.8383 28.4047L52.8882 27.3784L57.848 27.5066C57.8837 27.5041 57.9187 27.503 57.9533 27.503C58.8828 27.503 59.3881 28.3563 59.3881 28.8011L59.1629 44.3646L59.0103 54.9027C59.0103 55.3642 58.6321 55.7417 58.1701 55.7417Z" fill="url(#paint1_linear_233_1932)"/>
        </g>
        <mask id="mask2_233_1932" style="mask-type:luminance" maskUnits="userSpaceOnUse" x="12" y="27" width="47" height="28">
            <path d="M57.0749 54.8923H51.5491L52.8046 29.0994L55.7785 29.1793C55.7821 29.1791 55.7951 29.1787 55.8162 29.1787C55.9813 29.1787 56.6355 29.2066 57.0655 29.6185C57.3251 29.8674 57.4578 30.2164 57.4598 30.6536L57.3517 38.0136C57.3508 38.0777 57.4021 38.1308 57.4664 38.1317H57.4683C57.5317 38.1317 57.5836 38.0808 57.5846 38.017L57.6927 30.6547C57.6904 30.1498 57.5336 29.7445 57.2264 29.4504C56.7429 28.987 56.0446 28.9453 55.8327 28.9453C55.8055 28.9453 55.7863 28.946 55.7766 28.9466L52.8159 28.8672L52.8383 28.4047L56.1763 28.4943C56.1972 28.4934 56.2185 28.493 56.2402 28.493C57.0023 28.493 58.1855 29.016 58.2262 30.4025L57.8696 54.0976C57.8696 54.5345 57.5121 54.8923 57.0749 54.8923ZM21.2215 54.8923H13.5345C13.0974 54.8923 12.7399 54.5345 12.7399 54.0976L12.1072 28.8751C12.0969 28.4679 12.2556 28.0743 12.544 27.7866C12.823 27.5083 13.2005 27.3525 13.5935 27.3525C13.6067 27.3525 13.62 27.3526 13.6333 27.353L19.8962 27.5209L21.2215 54.8923Z" fill="white"/>
        </mask>
        <g mask="url(#mask2_233_1932)">
            <path d="M57.0751 54.8922H51.5493L52.8045 29.0994L55.7787 29.179C55.7823 29.179 55.7952 29.1787 55.8162 29.1787C55.9816 29.1787 56.6357 29.2065 57.0658 29.6184C57.3251 29.8674 57.458 30.2164 57.4598 30.6536L57.3519 38.0135C57.3508 38.0777 57.4023 38.1307 57.4666 38.1316H57.4684C57.5319 38.1316 57.5837 38.0807 57.5848 38.0169L57.6927 30.6547C57.6905 30.1496 57.5337 29.7445 57.2265 29.4502C56.7428 28.9869 56.0445 28.9451 55.8327 28.9451C55.8055 28.9451 55.7862 28.9458 55.7766 28.9465L52.816 28.8672L52.8385 28.4046L56.1763 28.4942C56.1974 28.4932 56.2185 28.4928 56.2402 28.4928C57.0025 28.4928 58.1856 29.0158 58.2264 30.4025L57.8699 54.0975C57.8699 54.5345 57.5123 54.8922 57.0751 54.8922ZM21.2215 54.8922H13.5345C13.0974 54.8922 12.7399 54.5345 12.7399 54.0975L12.1072 28.875C12.0969 28.4678 12.2556 28.0742 12.544 27.7866C12.823 27.5083 13.2005 27.3522 13.5935 27.3522C13.6067 27.3522 13.62 27.3526 13.6333 27.3529L19.8963 27.5208L21.2215 54.8922Z" fill="url(#paint2_linear_233_1932)"/>
        </g>
        <path d="M57.3991 42.8407H57.3977C57.3331 42.8398 57.2819 42.7869 57.283 42.7224L57.3109 40.8009C57.3119 40.7371 57.3638 40.6862 57.4274 40.6862H57.4291C57.4934 40.6871 57.5449 40.7399 57.5439 40.8043L57.5156 42.726C57.5146 42.7896 57.4627 42.8407 57.3991 42.8407Z" fill="#91B3FA"/>
        <path d="M57.4685 38.1317H57.4667C57.4023 38.1307 57.3509 38.0777 57.352 38.0135L57.46 30.6535C57.4578 30.2164 57.3255 29.8674 57.0657 29.6183C56.5808 29.1539 55.8109 29.1776 55.7787 29.179L42.1809 28.8144C42.1165 28.813 42.0659 28.7592 42.0677 28.6952C42.0691 28.6307 42.1186 28.5759 42.1873 28.5819L55.777 28.9465C55.8612 28.9415 56.6809 28.9274 57.2267 29.4501C57.5339 29.7446 57.6907 30.1499 57.6929 30.6546L57.5849 38.0169C57.5838 38.0807 57.5318 38.1317 57.4685 38.1317Z" fill="#91B3FA"/>
        <mask id="mask3_233_1932" style="mask-type:luminance" maskUnits="userSpaceOnUse" x="8" y="55" width="54" height="3">
            <path d="M8.33275 57.9085H61.6675C61.7262 57.9085 61.7741 57.8606 61.7741 57.8019V55.7217C61.7741 55.6632 61.7262 55.6151 61.6675 55.6151H8.33275C8.27409 55.6151 8.22607 55.6632 8.22607 55.7217V57.8019C8.22607 57.8606 8.27409 57.9085 8.33275 57.9085Z" fill="white"/>
        </mask>
        <g mask="url(#mask3_233_1932)">
            <path d="M8.33272 57.9087H61.6675C61.7263 57.9087 61.774 57.8608 61.774 57.8021V55.7219C61.774 55.6634 61.7263 55.6153 61.6675 55.6153H8.33272C8.27409 55.6153 8.22607 55.6634 8.22607 55.7219V57.8021C8.22607 57.8608 8.27409 57.9087 8.33272 57.9087Z" fill="url(#paint3_linear_233_1932)"/>
        </g>
        <path d="M48.1634 14.8186L20.9194 14.6519C20.0242 14.6464 19.3079 15.3942 19.3523 16.2887L21.2266 54.9958H51.544L53.2274 20.413L48.1634 14.8186Z" fill="#91B3FA"/>
        <path d="M49.2964 20.2471C48.4089 20.216 47.7267 19.4509 47.7967 18.5658L48.0886 14.8697L53.2329 20.3902L49.2964 20.2471Z" fill="#7D97F4"/>
        <path d="M25.4874 39.3959C29.2642 39.3346 43.7619 39.0844 47.4225 39.0213C47.8845 39.0133 48.264 39.2931 48.2617 39.639C48.2593 39.968 47.9096 40.2356 47.4702 40.2448L25.5486 40.6985C25.1263 40.7073 24.7633 40.4737 24.7112 40.1598L24.698 40.0805C24.6386 39.7216 25.0046 39.4036 25.4874 39.3959Z" fill="#BDD0FB"/>
        <path d="M25.2229 43.2386C25.2867 43.3194 25.4032 43.3689 25.5282 43.3676L40.5797 43.2293C40.7688 43.2275 40.9207 43.113 40.9217 42.9717L40.927 42.2292C40.928 42.0815 40.7653 41.9623 40.5682 41.9665L25.9353 42.2724C25.2837 42.2859 24.8921 42.817 25.2229 43.2386Z" fill="#BDD0FB"/>
        <path d="M25.4147 46.1126C29.1913 46.0515 43.6889 45.8013 47.3497 45.7381C47.8115 45.7302 48.1911 46.0098 48.1887 46.3557C48.1864 46.6847 47.8366 46.9523 47.3973 46.9615L25.4757 47.4153C25.0534 47.4242 24.6906 47.1906 24.6383 46.8766L24.6253 46.7972C24.5656 46.4383 24.9317 46.1204 25.4147 46.1126Z" fill="#BDD0FB"/>
        <path d="M25.1504 49.9552C25.2138 50.0362 25.3306 50.0854 25.4557 50.0843L40.5069 49.9462C40.6959 49.9445 40.8478 49.8299 40.8488 49.6885L40.8541 48.9458C40.8551 48.7983 40.6921 48.6792 40.4951 48.6833L25.8625 48.9892C25.2108 49.0028 24.8192 49.5337 25.1504 49.9552Z" fill="#BDD0FB"/>
        <path d="M40.9072 31.6556C40.9049 31.6556 40.9028 31.6556 40.9008 31.6556L32.4041 31.5417C32.2572 31.5396 32.1271 31.4446 32.0837 31.3064L29.5139 23.0939L28.0937 23.1274C28.0904 23.1274 28.0874 23.1274 28.0842 23.1274C27.9104 23.1274 27.771 23.0117 27.771 22.8371C27.771 22.6593 27.9153 22.5351 28.0937 22.5305L29.7556 22.487C29.7585 22.4867 29.7617 22.4867 29.7646 22.4867C29.9048 22.4867 30.0275 22.5727 30.0692 22.7051L30.3753 23.6763L42.4804 23.4227C42.4847 23.4224 42.4888 23.4224 42.4932 23.4224C42.6215 23.4224 42.7413 23.4635 42.8188 23.5588C42.8987 23.6571 42.9237 23.7812 42.8867 23.9019L41.4558 28.5279C41.4039 28.6961 41.241 28.8174 41.0553 28.8174C41.0553 28.8174 41.055 28.8174 41.0547 28.8174L31.9901 28.8037L32.6518 30.9359L40.9008 31.0248C41.1002 31.0272 41.2622 31.1563 41.2622 31.3446C41.2622 31.5312 41.1037 31.6556 40.9072 31.6556Z" fill="#E9F0FE"/>
        <path d="M33.6818 34.5273C33.6701 34.5273 33.6587 34.527 33.6471 34.5268C32.9479 34.5084 32.3823 33.9408 32.3823 33.2611C32.3823 32.588 32.9369 32.0481 33.6264 32.0481C33.6333 32.0481 33.6403 32.0481 33.6471 32.0481C34.3505 32.059 34.9258 32.6271 34.9258 33.3142C34.9258 33.9901 34.3693 34.5273 33.6818 34.5273ZM33.6357 32.7091C33.3141 32.7091 33.0552 32.9608 33.0552 33.2751C33.0552 33.5932 33.3202 33.8584 33.6471 33.8658C33.652 33.866 33.6566 33.866 33.6615 33.866C33.9826 33.866 34.242 33.6148 34.242 33.3C34.242 32.9801 33.9747 32.7151 33.6471 32.7091C33.6434 32.7091 33.6394 32.7091 33.6357 32.7091Z" fill="#E9F0FE"/>
        <path d="M39.3484 34.6762C39.3362 34.6762 39.3237 34.6759 39.311 34.6757C38.5775 34.6565 37.9839 34.0743 37.9839 33.378C37.9839 32.6891 38.5655 32.1359 39.289 32.1359C39.2963 32.1359 39.3038 32.1362 39.311 32.1362C40.0495 32.1477 40.6535 32.73 40.6535 33.4339C40.6535 34.1262 40.0697 34.6762 39.3484 34.6762ZM39.299 32.8133C38.9616 32.8133 38.69 33.071 38.69 33.393C38.69 33.7189 38.9683 33.9903 39.311 33.9985C39.3165 33.9988 39.3215 33.9988 39.3267 33.9988C39.6636 33.9988 39.9355 33.7416 39.9355 33.4191C39.9355 33.0914 39.6552 32.8198 39.311 32.8133C39.3072 32.8133 39.303 32.8133 39.299 32.8133Z" fill="#E9F0FE"/>
        <path d="M35.8861 37.5679C30.1543 37.5679 25.4915 32.9047 25.4915 27.1732C25.4915 21.4416 30.1543 16.7787 35.8861 16.7787C41.6177 16.7787 46.2806 21.4416 46.2806 27.1732C46.2806 32.9047 41.6177 37.5679 35.8861 37.5679ZM35.8861 17.2959C30.4396 17.2959 26.0086 21.7269 26.0086 27.1732C26.0086 32.6197 30.4396 37.0508 35.8861 37.0508C41.3323 37.0508 45.7634 32.6197 45.7634 27.1732C45.7634 21.7269 41.3323 17.2959 35.8861 17.2959Z" fill="#EAF1FE"/>
        <mask id="mask4_233_1932" style="mask-type:luminance" maskUnits="userSpaceOnUse" x="34" y="24" width="5" height="5">
            <path d="M36.0223 28.4672C35.8619 28.4777 35.7125 28.403 35.6295 28.2696L34.2342 26.0291C34.1034 25.8192 34.1738 25.5315 34.3915 25.3868C34.6089 25.2423 34.891 25.2951 35.0217 25.5049L35.9893 27.0602L37.2661 24.4598C37.3806 24.2264 37.6559 24.1194 37.8808 24.2206C38.1055 24.3219 38.1949 24.5928 38.0806 24.826L36.4306 28.1892C36.3551 28.3432 36.2049 28.4491 36.0385 28.4658C36.0331 28.4664 36.0278 28.4668 36.0223 28.4672Z" fill="white"/>
        </mask>
        <g mask="url(#mask4_233_1932)">
            <path d="M36.0224 28.467C35.8619 28.4774 35.7126 28.4026 35.6294 28.2693L34.2343 26.0287C34.1033 25.819 34.1739 25.5312 34.3915 25.3864C34.609 25.2419 34.891 25.2948 35.0217 25.5045L35.9892 27.0598L37.266 24.4593C37.3806 24.226 37.6558 24.1192 37.8807 24.2201C38.1056 24.3216 38.195 24.5926 38.0806 24.8256L36.4305 28.1889C36.3552 28.343 36.2048 28.4487 36.0384 28.4655C36.0331 28.4661 36.0277 28.4664 36.0224 28.467Z" fill="url(#paint4_linear_233_1932)"/>
        </g>
        <mask id="mask5_233_1932" style="mask-type:luminance" maskUnits="userSpaceOnUse" x="16" y="30" width="8" height="7">
            <path d="M16.4534 36.823C16.3664 36.823 16.2946 36.754 16.2919 36.6664C16.2901 36.6077 16.2528 35.2106 16.6641 33.7185C17.2182 31.7091 18.3293 30.5179 19.8775 30.2743C20.636 30.1547 21.312 30.334 21.8868 30.8064C23.7596 32.347 23.9377 36.4802 23.9445 36.6553C23.9479 36.7445 23.8783 36.8196 23.789 36.823C23.6992 36.8251 23.6249 36.7568 23.6215 36.6675C23.6198 36.6262 23.442 32.504 21.6811 31.0558C21.1809 30.6447 20.5911 30.4891 19.9277 30.5936C16.4867 31.1353 16.6133 36.6013 16.615 36.6566C16.6178 36.7458 16.5476 36.8204 16.4584 36.823H16.4534Z" fill="white"/>
        </mask>
        <g mask="url(#mask5_233_1932)">
            <path d="M16.4534 36.823C16.3664 36.823 16.2946 36.754 16.2919 36.6664C16.2901 36.6078 16.2528 35.2106 16.6641 33.7186C17.2181 31.709 18.3293 30.5181 19.8775 30.2744C20.636 30.1549 21.312 30.334 21.8867 30.8065C23.7596 32.3472 23.9377 36.4803 23.9445 36.6554C23.9479 36.7447 23.8783 36.8198 23.789 36.823C23.6992 36.8252 23.6249 36.7569 23.6215 36.6676C23.6198 36.6264 23.442 32.504 21.6811 31.056C21.1809 30.6447 20.5911 30.4891 19.9277 30.5938C16.4867 31.1353 16.6133 36.6015 16.6151 36.6566C16.6178 36.7459 16.5476 36.8206 16.4584 36.823H16.4534Z" fill="url(#paint5_linear_233_1932)"/>
        </g>
        <mask id="mask6_233_1932" style="mask-type:luminance" maskUnits="userSpaceOnUse" x="9" y="35" width="18" height="21">
            <path d="M9.64497 54.5208L12.4224 35.3677L22.8561 35.1923L26.2189 55.5853H10.5484C9.991 55.5853 9.56363 55.0817 9.64497 54.5208Z" fill="white"/>
        </mask>
        <g mask="url(#mask6_233_1932)">
            <path d="M9.64497 54.5207L12.4224 35.3676L22.8562 35.1921L26.2189 55.5852H10.5484C9.99102 55.5852 9.56363 55.0816 9.64497 54.5207Z" fill="url(#paint6_linear_233_1932)"/>
        </g>
        <mask id="mask7_233_1932" style="mask-type:luminance" maskUnits="userSpaceOnUse" x="22" y="35" width="7" height="21">
            <path d="M24.8822 35.3677L22.856 35.1923L26.2188 55.5853H28.2305C28.6384 55.5853 28.9431 55.2041 28.8601 54.7979L24.8822 35.3677Z" fill="white"/>
        </mask>
        <g mask="url(#mask7_233_1932)">
            <path d="M24.8823 35.3676L22.8562 35.1921L26.2189 55.5852H28.2307C28.6386 55.5852 28.9433 55.2041 28.8602 54.7979L24.8823 35.3676Z" fill="url(#paint7_linear_233_1932)"/>
        </g>
        <mask id="mask8_233_1932" style="mask-type:luminance" maskUnits="userSpaceOnUse" x="14" y="30" width="8" height="7">
            <path d="M21.5409 36.7793C21.4545 36.7793 21.3828 36.7109 21.3794 36.6238C21.3779 36.5823 21.2 32.46 19.4391 31.0121C18.9391 30.6009 18.3492 30.4453 17.6858 30.5498C14.2475 31.091 14.3714 36.5576 14.3731 36.6126C14.3758 36.7019 14.3056 36.7764 14.2164 36.7791C14.1262 36.7828 14.0527 36.7117 14.0499 36.6225C14.0482 36.5638 14.0108 35.1666 14.4222 33.6747C14.9762 31.6651 16.0874 30.4742 17.6356 30.2304C18.3942 30.1109 19.0702 30.29 19.6447 30.7626C21.5177 32.3032 21.6958 36.4362 21.7025 36.6115C21.7058 36.7008 21.6364 36.7757 21.5472 36.7791C21.5451 36.7793 21.543 36.7793 21.5409 36.7793Z" fill="white"/>
        </mask>
        <g mask="url(#mask8_233_1932)">
            <path d="M21.5409 36.7792C21.4545 36.7792 21.3828 36.7111 21.3794 36.6239C21.3779 36.5824 21.2 32.4602 19.439 31.0123C18.939 30.6011 18.3492 30.4455 17.6858 30.55C14.2475 31.091 14.3714 36.5577 14.3731 36.6127C14.3758 36.7021 14.3056 36.7766 14.2164 36.7792C14.1262 36.7829 14.0527 36.7118 14.0499 36.6225C14.0482 36.5638 14.0108 35.1667 14.4222 33.6749C14.9762 31.6653 16.0874 30.4743 17.6356 30.2306C18.3942 30.1112 19.0702 30.2902 19.6447 30.7627C21.5177 32.3034 21.6958 36.4364 21.7024 36.6117C21.7058 36.7008 21.6364 36.7758 21.5471 36.7792C21.5451 36.7792 21.543 36.7792 21.5409 36.7792Z" fill="url(#paint8_linear_233_1932)"/>
        </g>
        <mask id="mask9_233_1932" style="mask-type:luminance" maskUnits="userSpaceOnUse" x="49" y="59" width="5" height="2">
            <path d="M49.3817 59.7026C50.0655 59.7617 51.2519 59.8577 52.1874 59.8989C52.7497 59.9236 53.0734 59.8687 53.2598 59.794C53.2595 59.8149 53.2589 59.8349 53.2581 59.8532C53.2538 59.9517 53.1738 60.0304 53.0744 60.036C51.3068 60.1347 49.901 60.0702 49.4006 60.0396C49.2972 60.0334 49.2355 59.9209 49.2883 59.8326C49.3149 59.7885 49.3468 59.7453 49.3817 59.7026Z" fill="white"/>
        </mask>
        <g mask="url(#mask9_233_1932)">
            <path d="M49.3817 59.7027C50.0656 59.7618 51.252 59.8578 52.1875 59.8989C52.7498 59.9236 53.0733 59.8687 53.2599 59.794C53.2595 59.815 53.2589 59.835 53.2582 59.8533C53.254 59.9518 53.1739 60.0304 53.0743 60.0361C51.3069 60.1348 49.9009 60.0702 49.4006 60.0397C49.2971 60.0335 49.2356 59.921 49.2882 59.8327C49.315 59.7886 49.3467 59.7454 49.3817 59.7027Z" fill="url(#paint9_linear_233_1932)"/>
        </g>
        <mask id="mask10_233_1932" style="mask-type:luminance" maskUnits="userSpaceOnUse" x="49" y="58" width="5" height="2">
            <path d="M52.1873 59.8989C51.2518 59.8577 50.0654 59.7617 49.3816 59.7026C50.0539 58.8779 52.1873 58.3221 52.1873 58.3221H52.7899C53.2042 58.9194 53.2642 59.4883 53.2597 59.794C53.0733 59.8687 52.7495 59.9236 52.1873 59.8989Z" fill="white"/>
        </mask>
        <g mask="url(#mask10_233_1932)">
            <path d="M52.1873 59.8989C51.2518 59.8577 50.0654 59.7617 49.3818 59.7027C50.054 58.8779 52.1873 58.3221 52.1873 58.3221H52.7898C53.2045 58.9194 53.2643 59.4883 53.2597 59.794C53.0735 59.8687 52.7497 59.9236 52.1873 59.8989Z" fill="url(#paint10_linear_233_1932)"/>
        </g>
        <mask id="mask11_233_1932" style="mask-type:luminance" maskUnits="userSpaceOnUse" x="51" y="57" width="2" height="2">
            <path d="M52.8913 57.3385L52.8349 58.4543C52.8288 58.5751 52.7385 58.6766 52.6173 58.694C52.497 58.7111 52.3358 58.7134 52.1647 58.6564C52.0596 58.6213 51.9815 58.5328 51.9621 58.4247L51.7673 57.3385H52.8913Z" fill="white"/>
        </mask>
        <g mask="url(#mask11_233_1932)">
            <path d="M52.8914 57.3385L52.8349 58.4543C52.8291 58.5751 52.7385 58.6766 52.6175 58.694C52.4971 58.7111 52.3358 58.7134 52.1648 58.6564C52.0597 58.6213 51.9815 58.5328 51.962 58.4247L51.7673 57.3385H52.8914Z" fill="url(#paint11_linear_233_1932)"/>
        </g>
        <mask id="mask12_233_1932" style="mask-type:luminance" maskUnits="userSpaceOnUse" x="58" y="60" width="3" height="2">
            <path d="M59.8848 60.9898C60.1813 60.9364 60.3154 60.7374 60.3718 60.5245C60.372 60.5264 60.3724 60.5283 60.3728 60.5302C60.4165 60.7547 60.3154 60.9874 60.1131 61.0981C59.8688 61.2317 59.6016 61.2545 59.3943 61.2436C59.1716 61.2317 58.9675 61.1126 58.8552 60.9223L58.8535 60.9192C59.0769 61.0621 59.3905 61.0791 59.8848 60.9898Z" fill="white"/>
        </mask>
        <g mask="url(#mask12_233_1932)">
            <path d="M59.8846 60.9898C60.1813 60.9364 60.3154 60.7374 60.3717 60.5246C60.3717 60.5264 60.3721 60.5283 60.3728 60.5302C60.4166 60.7548 60.3154 60.9874 60.1132 61.0981C59.8687 61.2317 59.6016 61.2546 59.3941 61.2436C59.1715 61.2317 58.9674 61.1127 58.8551 60.9223L58.8533 60.9193C59.0767 61.0621 59.3904 61.0791 59.8846 60.9898Z" fill="url(#paint12_linear_233_1932)"/>
        </g>
        <mask id="mask13_233_1932" style="mask-type:luminance" maskUnits="userSpaceOnUse" x="58" y="57" width="3" height="5">
            <path d="M58.4869 57.6823H58.9839C59.7409 57.6623 60.2161 59.7255 60.3718 60.5245C60.3154 60.7374 60.1812 60.9364 59.8848 60.9898C59.3905 61.0791 59.0769 61.0621 58.8535 60.9193C58.4446 60.2238 58.2418 59.2053 58.1444 58.6108C58.0335 57.9347 58.4869 57.6823 58.4869 57.6823Z" fill="white"/>
        </mask>
        <g mask="url(#mask13_233_1932)">
            <path d="M58.4867 57.6823H58.9838C59.7405 57.6623 60.216 59.7255 60.3716 60.5246C60.3153 60.7374 60.1809 60.9364 59.8845 60.9898C59.3901 61.0791 59.0767 61.0621 58.8534 60.9193C58.4445 60.2238 58.2415 59.2053 58.1441 58.6108C58.0334 57.9347 58.4867 57.6823 58.4867 57.6823Z" fill="url(#paint13_linear_233_1932)"/>
        </g>
        <mask id="mask14_233_1932" style="mask-type:luminance" maskUnits="userSpaceOnUse" x="57" y="56" width="3" height="3">
            <path d="M58.9203 56.6464L59.1961 57.744C59.2299 57.8785 59.1655 58.0177 59.0412 58.0815C58.8869 58.1608 58.6695 58.244 58.4697 58.22C58.3757 58.2087 58.2978 58.1425 58.2667 58.054L57.8616 56.8993L58.9203 56.6464Z" fill="white"/>
        </mask>
        <g mask="url(#mask14_233_1932)">
            <path d="M58.9201 56.6464L59.1962 57.744C59.2296 57.8785 59.1653 58.0177 59.0411 58.0815C58.8867 58.1608 58.6695 58.244 58.4697 58.22C58.3757 58.2087 58.2976 58.1425 58.2667 58.054L57.8613 56.8993L58.9201 56.6464Z" fill="url(#paint14_linear_233_1932)"/>
        </g>
        <mask id="mask15_233_1932" style="mask-type:luminance" maskUnits="userSpaceOnUse" x="49" y="41" width="11" height="17">
            <path d="M49.2134 42.1921C49.2134 42.1921 51.6792 57.6059 51.6387 57.6906C51.6387 57.6906 52.3196 58.0002 53.0621 57.7302C53.0621 57.7302 52.8392 49.4904 52.3166 46.3309C52.3166 46.3309 56.5251 53.6957 57.8615 57.3655C57.8615 57.3655 58.5585 57.2823 59.1355 56.9026C59.1355 56.9026 54.6043 43.6464 53.3953 41.8808L49.2134 42.1921Z" fill="white"/>
        </mask>
        <g mask="url(#mask15_233_1932)">
            <path d="M49.2134 42.1921C49.2134 42.1921 51.6793 57.6059 51.6387 57.6906C51.6387 57.6906 52.3196 58.0002 53.0619 57.7302C53.0619 57.7302 52.8391 49.4904 52.3167 46.3309C52.3167 46.3309 56.5251 53.6957 57.8613 57.3655C57.8613 57.3655 58.5586 57.2823 59.1354 56.9027C59.1354 56.9027 54.6041 43.6464 53.3953 41.8808L49.2134 42.1921Z" fill="url(#paint15_linear_233_1932)"/>
        </g>
        <mask id="mask16_233_1932" style="mask-type:luminance" maskUnits="userSpaceOnUse" x="50" y="44" width="3" height="3">
            <path d="M52.2182 46.2508C52.2314 46.2508 52.2446 46.2472 52.2567 46.2396C52.2909 46.2183 52.3011 46.1734 52.2797 46.1393L51.3584 44.6674C51.3477 44.6504 51.3305 44.6385 51.3111 44.6345L50.6328 44.4981C50.5931 44.4902 50.555 44.5159 50.5471 44.5551C50.5392 44.5945 50.5646 44.633 50.6041 44.641L51.2514 44.7711L52.1563 46.2164C52.1701 46.2385 52.1939 46.2508 52.2182 46.2508Z" fill="white"/>
        </mask>
        <g mask="url(#mask16_233_1932)">
            <path d="M52.2185 46.2507C52.2316 46.2507 52.2448 46.2471 52.257 46.2396C52.291 46.2183 52.3013 46.1734 52.2801 46.1392L51.3587 44.6673C51.3478 44.6503 51.3308 44.6384 51.3112 44.6345L50.633 44.4981C50.5932 44.4902 50.5551 44.5158 50.5474 44.5551C50.5393 44.5945 50.565 44.633 50.6042 44.6409L51.2516 44.7711L52.1566 46.2164C52.1704 46.2385 52.1941 46.2507 52.2185 46.2507Z" fill="url(#paint16_linear_233_1932)"/>
        </g>
        <mask id="mask17_233_1932" style="mask-type:luminance" maskUnits="userSpaceOnUse" x="37" y="27" width="7" height="7">
            <path d="M37.8974 27.0985C37.8974 27.0985 39.5614 27.4655 40.5735 27.9328C40.7744 28.0257 40.9348 28.1879 41.0261 28.3879C41.3287 29.0509 42.2344 30.7136 43.9906 31.507C43.7376 31.8426 43.3304 32.5409 43.1531 33.7145C42.0982 32.9294 41.1876 31.6183 40.7504 29.4681C40.7504 29.4681 40.4174 29.6491 40.0021 29.4474C39.7827 29.3408 39.5295 29.1896 39.3393 29.0708C39.1497 28.9524 39.0086 28.7683 38.9538 28.5532C38.8814 28.2692 38.924 28.0196 38.924 27.7517L38.0687 27.4866C38.0687 27.4866 37.8116 27.3896 37.8974 27.0985Z" fill="white"/>
        </mask>
        <g mask="url(#mask17_233_1932)">
            <path d="M37.8974 27.0986C37.8974 27.0986 39.5612 27.4657 40.5733 27.9331C40.7744 28.0257 40.9347 28.1881 41.0259 28.3881C41.3287 29.0509 42.2344 30.7137 43.9905 31.5071C43.7374 31.8429 43.3304 32.541 43.1531 33.7148C42.0981 32.9297 41.1876 31.6183 40.7503 29.4682C40.7503 29.4682 40.4173 29.6493 40.002 29.4474C39.7825 29.3408 39.5294 29.1897 39.3391 29.0709C39.1497 28.9527 39.0085 28.7684 38.9537 28.5533C38.8814 28.2694 38.9241 28.0197 38.9241 27.7517L38.0685 27.4867C38.0685 27.4867 37.8116 27.3898 37.8974 27.0986Z" fill="url(#paint17_linear_233_1932)"/>
        </g>
        <mask id="mask18_233_1932" style="mask-type:luminance" maskUnits="userSpaceOnUse" x="43" y="31" width="15" height="12">
            <path d="M43.1533 33.7145C43.3307 32.5409 43.7378 31.8426 43.9909 31.507C45.0818 32 46.5011 32.1575 48.3082 31.5313C48.4748 31.4736 48.6486 31.4398 48.8246 31.4294C49.7867 31.373 52.9571 31.27 55.5805 32.1368C56.1326 32.3192 56.5797 32.7274 56.8101 33.2562C57.5197 34.8847 58.6686 38.5934 55.4792 40.4659C55.2341 39.8576 54.9512 39.3685 54.7095 39.0091C55.2231 38.1428 55.3752 36.9594 54.4637 35.4185C53.7992 37.2132 53.4873 39.8317 53.4222 40.9906C53.4007 41.3721 53.4677 41.753 53.6173 42.1051L53.6337 42.1436C53.6658 42.2191 53.6216 42.3057 53.5411 42.3238C51.7456 42.727 49.878 42.6176 49.3201 42.5713C49.2205 42.5632 49.1377 42.4919 49.1148 42.3957C48.2418 38.7166 48.2397 36.207 48.4535 34.6206C47.6367 34.8032 45.1392 35.1926 43.1533 33.7145Z" fill="white"/>
        </mask>
        <g mask="url(#mask18_233_1932)">
            <path d="M43.1536 33.7146C43.3306 32.5409 43.7378 31.8426 43.9908 31.5068C45.0818 31.9999 46.5012 32.1575 48.3082 31.5312C48.475 31.4736 48.6486 31.4397 48.8249 31.4294C49.7869 31.3729 52.9571 31.27 55.5805 32.1366C56.1326 32.3193 56.5797 32.7272 56.8101 33.2563C57.5198 34.8847 58.6687 38.5934 55.4791 40.4658C55.2342 39.8575 54.9515 39.3685 54.7097 39.009C55.2232 38.1428 55.3752 36.9594 54.4637 35.4185C53.7993 37.2132 53.4872 39.8317 53.4222 40.9906C53.4006 41.3721 53.4678 41.753 53.6173 42.1051L53.6339 42.1436C53.6657 42.219 53.6219 42.3056 53.5413 42.3238C51.7456 42.727 49.8781 42.6175 49.32 42.5713C49.2207 42.5632 49.1377 42.4919 49.1151 42.3957C48.2418 38.7166 48.24 36.207 48.4535 34.6205C47.6367 34.8032 45.1394 35.1926 43.1536 33.7146Z" fill="url(#paint18_linear_233_1932)"/>
        </g>
        <mask id="mask19_233_1932" style="mask-type:luminance" maskUnits="userSpaceOnUse" x="48" y="32" width="2" height="3">
            <path d="M48.4499 34.7196C48.4859 34.7196 48.5172 34.6928 48.5221 34.6562C48.727 33.1074 49.1448 32.4313 49.1487 32.4247C49.1702 32.3908 49.1602 32.3457 49.1263 32.3241C49.0923 32.3028 49.0474 32.3128 49.0259 32.3466C49.008 32.3747 48.5876 33.0515 48.3776 34.6372C48.3723 34.677 48.4004 34.7136 48.4402 34.7189C48.4436 34.7194 48.4466 34.7196 48.4499 34.7196Z" fill="white"/>
        </mask>
        <g mask="url(#mask19_233_1932)">
            <path d="M48.4499 34.7197C48.4858 34.7197 48.5172 34.6928 48.5223 34.656C48.7271 33.1073 49.1448 32.4311 49.1487 32.4245C49.1705 32.3907 49.1602 32.3455 49.1264 32.3241C49.0923 32.3026 49.0474 32.3126 49.026 32.3464C49.0082 32.3747 48.5878 33.0515 48.3776 34.637C48.3724 34.6768 48.4005 34.7136 48.4403 34.7187C48.4436 34.7193 48.4466 34.7197 48.4499 34.7197Z" fill="url(#paint19_linear_233_1932)"/>
        </g>
        <mask id="mask20_233_1932" style="mask-type:luminance" maskUnits="userSpaceOnUse" x="51" y="29" width="3" height="4">
            <path d="M52.881 29.2862C52.881 29.2862 53.0627 31.2068 53.2227 31.7749C53.2469 31.8611 53.2095 31.9521 53.1312 31.9968C52.8597 32.1519 52.2088 32.4049 51.3182 31.9685C51.1739 31.8977 51.0873 31.7474 51.0939 31.5881L51.1724 29.7323L52.881 29.2862Z" fill="white"/>
        </mask>
        <g mask="url(#mask20_233_1932)">
            <path d="M52.8811 29.286C52.8811 29.286 53.0627 31.2069 53.2227 31.7748C53.2469 31.861 53.2093 31.9521 53.1313 31.9969C52.8596 32.152 52.2087 32.4047 51.3182 31.9684C51.1739 31.8976 51.0873 31.7474 51.0939 31.588L51.1722 29.7321L52.8811 29.286Z" fill="url(#paint20_linear_233_1932)"/>
        </g>
        <mask id="mask21_233_1932" style="mask-type:luminance" maskUnits="userSpaceOnUse" x="50" y="26" width="4" height="5">
            <path d="M51.1329 26.8293C51.1329 26.8293 50.552 28.1638 50.5129 28.8644C50.474 29.5649 50.3231 30.0194 51.1329 30.1604C51.9429 30.3015 52.6252 29.8979 52.995 29.2002C52.995 29.2002 53.574 28.1251 53.4442 27.6847C53.3142 27.2444 51.1329 26.8293 51.1329 26.8293Z" fill="white"/>
        </mask>
        <g mask="url(#mask21_233_1932)">
            <path d="M51.1327 26.8293C51.1327 26.8293 50.5518 28.1639 50.5128 28.8645C50.4737 29.5652 50.3228 30.0194 51.1327 30.1605C51.9425 30.3015 52.6248 29.8981 52.9947 29.2004C52.9947 29.2004 53.5737 28.1252 53.4441 27.6847C53.3139 27.2446 51.1327 26.8293 51.1327 26.8293Z" fill="url(#paint21_linear_233_1932)"/>
        </g>
        <mask id="mask22_233_1932" style="mask-type:luminance" maskUnits="userSpaceOnUse" x="50" y="25" width="5" height="5">
            <path d="M52.7184 28.6985L52.6722 28.6783C52.6135 28.6523 52.5884 28.5825 52.6178 28.5255C52.7322 28.3049 52.9548 27.7991 52.6671 27.6811C52.2965 27.5291 50.828 27.2296 50.5112 26.7087C50.2067 26.2079 50.4765 25.5615 50.882 25.3777C50.9091 25.3653 50.9412 25.3751 50.955 25.4015L50.9888 25.4655C51.012 25.5092 51.0767 25.5025 51.0905 25.4549C51.1035 25.4092 51.1642 25.4006 51.1895 25.4408C51.2869 25.5966 51.5497 25.8494 52.2529 25.9791C53.252 26.1636 53.9127 26.5679 53.9291 27.2583C53.9301 27.3023 53.9769 27.3266 54.0142 27.3038C54.088 27.2589 54.2061 27.2377 54.3639 27.3704C54.6384 27.6011 54.5261 28.1996 53.9244 28.6921C53.8959 28.7155 53.8961 28.76 53.9271 28.7802C54.0361 28.8511 54.1988 29.0202 53.7774 29.2453C53.3418 29.4783 53.0163 29.4591 52.891 29.4385C52.8599 29.4334 52.8399 29.4032 52.8467 29.3723L52.9805 28.7655C52.988 28.7311 52.9618 28.6985 52.9267 28.6985H52.7184Z" fill="white"/>
        </mask>
        <g mask="url(#mask22_233_1932)">
            <path d="M52.7182 28.6984L52.672 28.6784C52.6132 28.6523 52.5881 28.5824 52.6175 28.5255C52.7319 28.3048 52.9546 27.7989 52.6667 27.6812C52.2962 27.5291 50.8279 27.2298 50.5109 26.7088C50.2066 26.2079 50.4761 25.5615 50.8817 25.3776C50.9088 25.3652 50.9409 25.3752 50.9546 25.4017L50.9884 25.4655C51.0118 25.5093 51.0763 25.5023 51.0904 25.4548C51.1031 25.4094 51.1639 25.4007 51.1894 25.4408C51.2867 25.5966 51.5495 25.8494 52.2527 25.9792C53.2519 26.1637 53.9126 26.568 53.929 27.2582C53.9297 27.3023 53.9765 27.3267 54.014 27.3037C54.0879 27.2589 54.2059 27.2378 54.3637 27.3702C54.6383 27.6013 54.5259 28.1995 53.9243 28.6921C53.8956 28.7155 53.8959 28.7599 53.9267 28.7803C54.036 28.8512 54.1985 29.0201 53.7772 29.2451C53.3415 29.4782 53.0161 29.4592 52.8907 29.4384C52.8596 29.4334 52.8396 29.4033 52.8466 29.3722L52.9804 28.7656C52.9877 28.7312 52.9616 28.6984 52.9265 28.6984H52.7182Z" fill="url(#paint22_linear_233_1932)"/>
        </g>
        <mask id="mask23_233_1932" style="mask-type:luminance" maskUnits="userSpaceOnUse" x="52" y="28" width="2" height="2">
            <path d="M52.6931 28.8266C52.6931 28.8266 52.9148 27.9742 53.2971 28.213C53.6793 28.4521 53.0988 29.1683 52.7914 29.2002L52.6931 28.8266Z" fill="white"/>
        </mask>
        <g mask="url(#mask23_233_1932)">
            <path d="M52.6934 28.8264C52.6934 28.8264 52.9149 27.974 53.2974 28.2129C53.6796 28.4518 53.0991 29.1683 52.7917 29.2001L52.6934 28.8264Z" fill="url(#paint23_linear_233_1932)"/>
        </g>
        <mask id="mask24_233_1932" style="mask-type:luminance" maskUnits="userSpaceOnUse" x="39" y="27" width="2" height="3">
            <path d="M40.3067 29.2698C40.3228 29.2698 40.3392 29.2645 40.3526 29.2534C40.3837 29.2281 40.3884 29.1823 40.3632 29.1509C40.3001 29.0736 39.7418 28.3909 39.5267 28.2694C39.4484 28.2251 39.4018 28.1794 39.3918 28.1374C39.3871 28.1172 39.3903 28.0945 39.4017 28.0689L40.0577 28.2004L40.4294 28.5192C40.4598 28.5455 40.506 28.5421 40.532 28.5115C40.5583 28.4809 40.5549 28.4349 40.5243 28.4087L40.1381 28.0774C40.1286 28.0692 40.1173 28.0638 40.105 28.0611L39.3786 27.9157C39.3496 27.9098 39.3203 27.9221 39.3039 27.9464C39.2507 28.0253 39.2332 28.0989 39.2501 28.1707C39.2701 28.2558 39.3371 28.3296 39.455 28.3962C39.6169 28.4875 40.0839 29.0385 40.2501 29.243C40.2645 29.2606 40.2856 29.2698 40.3067 29.2698Z" fill="white"/>
        </mask>
        <g mask="url(#mask24_233_1932)">
            <path d="M40.3067 29.2697C40.3227 29.2697 40.3393 29.2645 40.3527 29.2532C40.3837 29.2281 40.3886 29.1822 40.3633 29.1509C40.3003 29.0735 39.7418 28.3908 39.5267 28.2694C39.4485 28.225 39.4017 28.1793 39.3919 28.1372C39.387 28.1171 39.3904 28.0943 39.4017 28.0688L40.0578 28.2002L40.4294 28.5191C40.4599 28.5454 40.5061 28.5421 40.5321 28.5113C40.5582 28.4809 40.5549 28.4349 40.5244 28.4086L40.1381 28.0773C40.1286 28.069 40.1172 28.0636 40.1051 28.061L39.3788 27.9157C39.3496 27.9097 39.3204 27.9219 39.3039 27.9464C39.2507 28.0252 39.2331 28.0987 39.2502 28.1705C39.2701 28.2557 39.3372 28.3296 39.4552 28.3962C39.6171 28.4873 40.0839 29.0383 40.2502 29.2428C40.2644 29.2604 40.2856 29.2697 40.3067 29.2697Z" fill="url(#paint24_linear_233_1932)"/>
        </g>
        <mask id="mask25_233_1932" style="mask-type:luminance" maskUnits="userSpaceOnUse" x="50" y="39" width="6" height="3">
            <path d="M52.7214 41.3889L50.1533 41.4206L51.0522 40.5745C51.2756 40.3643 51.6165 40.3302 51.8745 40.4975C52.0254 40.5955 52.1892 40.7283 52.3311 40.9043C52.3311 40.9043 53.9329 40.3191 54.7095 39.0091C54.9512 39.3685 55.2341 39.8575 55.4792 40.4658C54.7831 40.8745 53.8807 41.1958 52.7214 41.3889Z" fill="white"/>
        </mask>
        <g mask="url(#mask25_233_1932)">
            <path d="M52.7214 41.3888L50.1531 41.4204L51.052 40.5744C51.2756 40.3642 51.6163 40.3301 51.8743 40.4974C52.0254 40.5954 52.1891 40.7282 52.3311 40.9042C52.3311 40.9042 53.9328 40.3189 54.7095 39.0089C54.9512 39.3684 55.234 39.8574 55.4791 40.4657C54.783 40.8744 53.8807 41.1957 52.7214 41.3888Z" fill="url(#paint25_linear_233_1932)"/>
        </g>
        <mask id="mask26_233_1932" style="mask-type:luminance" maskUnits="userSpaceOnUse" x="45" y="41" width="8" height="1">
            <path d="M52.4445 41.72C52.4396 41.7204 52.4347 41.7204 52.4296 41.7204L45.9109 41.7134C45.7498 41.7132 45.6192 41.5838 45.6194 41.4243C45.6196 41.2649 45.7509 41.1332 45.9115 41.136L52.4301 41.143C52.5913 41.1432 52.7218 41.2726 52.7216 41.4321C52.7215 41.5864 52.5986 41.7125 52.4445 41.72Z" fill="white"/>
        </mask>
        <g mask="url(#mask26_233_1932)">
            <path d="M52.4442 41.72C52.4393 41.7204 52.4345 41.7204 52.4293 41.7204L45.9109 41.7134C45.7495 41.7132 45.6191 41.5838 45.6191 41.4244C45.6195 41.2649 45.7508 41.1332 45.9112 41.136L52.43 41.143C52.591 41.1432 52.7217 41.2727 52.7214 41.4321C52.7214 41.5864 52.5985 41.7124 52.4442 41.72Z" fill="url(#paint26_linear_233_1932)"/>
        </g>
        <mask id="mask27_233_1932" style="mask-type:luminance" maskUnits="userSpaceOnUse" x="39" y="35" width="10" height="7">
            <path d="M40.0509 35.864H45.4796C45.8802 35.864 46.2447 36.0927 46.4155 36.4511L48.9253 41.7166H42.1787C41.9205 41.7166 41.6887 41.5606 41.5939 41.323L39.6477 36.4506C39.5353 36.1691 39.7449 35.864 40.0509 35.864Z" fill="white"/>
        </mask>
        <g mask="url(#mask27_233_1932)">
            <path d="M40.0509 35.864H45.4795C45.8802 35.864 46.2446 36.0927 46.4153 36.4511L48.9252 41.7166H42.1787C41.9205 41.7166 41.6885 41.5606 41.594 41.3231L39.6477 36.4505C39.5352 36.169 39.745 35.864 40.0509 35.864Z" fill="url(#paint27_linear_233_1932)"/>
        </g>
        <mask id="mask28_233_1932" style="mask-type:luminance" maskUnits="userSpaceOnUse" x="43" y="38" width="1" height="2">
            <path d="M43.8756 38.5638C43.9932 38.9255 43.9062 39.2766 43.6815 39.3483C43.4566 39.4198 43.1788 39.1847 43.0613 38.8232C42.9435 38.4615 43.0305 38.1102 43.2554 38.0387C43.4802 37.967 43.7579 38.2021 43.8756 38.5638Z" fill="white"/>
        </mask>
        <g mask="url(#mask28_233_1932)">
            <path d="M43.8757 38.5639C43.9932 38.9255 43.9062 39.2767 43.6814 39.3484C43.4567 39.4198 43.1788 39.1848 43.0613 38.8234C42.9435 38.4617 43.0306 38.1103 43.2553 38.0389C43.4801 37.9672 43.758 38.2022 43.8757 38.5639Z" fill="url(#paint28_linear_233_1932)"/>
        </g>
    </g>
    <defs>
        <linearGradient id="paint0_linear_233_1932" x1="127.696" y1="67.7555" x2="51.5092" y2="-17.4211" gradientUnits="userSpaceOnUse">
            <stop stop-color="#DAE3FE"/>
            <stop offset="1" stop-color="#E9EFFD"/>
        </linearGradient>
        <linearGradient id="paint1_linear_233_1932" x1="76.486" y1="38.5921" x2="55.7717" y2="-23.551" gradientUnits="userSpaceOnUse">
            <stop stop-color="#09005D"/>
            <stop offset="1" stop-color="#1A0F91"/>
        </linearGradient>
        <linearGradient id="paint2_linear_233_1932" x1="101.043" y1="-14.8705" x2="26.9706" y2="50.1637" gradientUnits="userSpaceOnUse">
            <stop stop-color="#4042E2"/>
            <stop offset="1" stop-color="#4F52FF"/>
        </linearGradient>
        <linearGradient id="paint3_linear_233_1932" x1="68.9565" y1="-12.5245" x2="70.2596" y2="41.6861" gradientUnits="userSpaceOnUse">
            <stop stop-color="#09005D"/>
            <stop offset="1" stop-color="#1A0F91"/>
        </linearGradient>
        <linearGradient id="paint4_linear_233_1932" x1="52.8253" y1="-5.60073" x2="53.4554" y2="-0.18189" gradientUnits="userSpaceOnUse">
            <stop stop-color="#E1473D"/>
            <stop offset="1" stop-color="#E9605A"/>
        </linearGradient>
        <linearGradient id="paint5_linear_233_1932" x1="32.6277" y1="9.32002" x2="23.2654" y2="32.2241" gradientUnits="userSpaceOnUse">
            <stop stop-color="#E1473D"/>
            <stop offset="1" stop-color="#E9605A"/>
        </linearGradient>
        <linearGradient id="paint6_linear_233_1932" x1="27.0287" y1="34.6798" x2="10.0518" y2="59.5598" gradientUnits="userSpaceOnUse">
            <stop stop-color="#FF928E"/>
            <stop offset="1" stop-color="#FE7062"/>
        </linearGradient>
        <linearGradient id="paint7_linear_233_1932" x1="47.2138" y1="36.3489" x2="34.7738" y2="40.3004" gradientUnits="userSpaceOnUse">
            <stop stop-color="#FF928E"/>
            <stop offset="1" stop-color="#FE7062"/>
        </linearGradient>
        <linearGradient id="paint8_linear_233_1932" x1="30.157" y1="8.22963" x2="20.7845" y2="31.1588" gradientUnits="userSpaceOnUse">
            <stop stop-color="#E1473D"/>
            <stop offset="1" stop-color="#E9605A"/>
        </linearGradient>
        <linearGradient id="paint9_linear_233_1932" x1="92.2333" y1="52.5018" x2="85.3221" y2="52.5018" gradientUnits="userSpaceOnUse">
            <stop stop-color="#4042E2"/>
            <stop offset="1" stop-color="#4F52FF"/>
        </linearGradient>
        <linearGradient id="paint10_linear_233_1932" x1="92.2346" y1="51.1471" x2="85.5181" y2="51.1471" gradientUnits="userSpaceOnUse">
            <stop stop-color="#09005D"/>
            <stop offset="1" stop-color="#1A0F91"/>
        </linearGradient>
        <linearGradient id="paint11_linear_233_1932" x1="90.9615" y1="49.3996" x2="89.0282" y2="49.3996" gradientUnits="userSpaceOnUse">
            <stop stop-color="#FEBBBA"/>
            <stop offset="1" stop-color="#FF928E"/>
        </linearGradient>
        <linearGradient id="paint12_linear_233_1932" x1="118.554" y1="52.1044" x2="115.551" y2="52.1044" gradientUnits="userSpaceOnUse">
            <stop stop-color="#4042E2"/>
            <stop offset="1" stop-color="#4F52FF"/>
        </linearGradient>
        <linearGradient id="paint13_linear_233_1932" x1="118.51" y1="49.1202" x2="114.104" y2="49.1202" gradientUnits="userSpaceOnUse">
            <stop stop-color="#09005D"/>
            <stop offset="1" stop-color="#1A0F91"/>
        </linearGradient>
        <linearGradient id="paint14_linear_233_1932" x1="113.975" y1="45.8118" x2="111.389" y2="45.8118" gradientUnits="userSpaceOnUse">
            <stop stop-color="#FEBBBA"/>
            <stop offset="1" stop-color="#FF928E"/>
        </linearGradient>
        <linearGradient id="paint15_linear_233_1932" x1="108.131" y1="52.8264" x2="99.1798" y2="13.0438" gradientUnits="userSpaceOnUse">
            <stop stop-color="#09005D"/>
            <stop offset="1" stop-color="#1A0F91"/>
        </linearGradient>
        <linearGradient id="paint16_linear_233_1932" x1="96.3428" y1="14.1653" x2="84.6898" y2="32.4145" gradientUnits="userSpaceOnUse">
            <stop stop-color="#CB236D"/>
            <stop offset="1" stop-color="#4C246D"/>
        </linearGradient>
        <linearGradient id="paint17_linear_233_1932" x1="58.2538" y1="11.5508" x2="65.8645" y2="21.4521" gradientUnits="userSpaceOnUse">
            <stop stop-color="#FEBBBA"/>
            <stop offset="1" stop-color="#FF928E"/>
        </linearGradient>
        <linearGradient id="paint18_linear_233_1932" x1="127.511" y1="-10.9694" x2="98.9294" y2="4.04798" gradientUnits="userSpaceOnUse">
            <stop stop-color="#FF928E"/>
            <stop offset="1" stop-color="#FE7062"/>
        </linearGradient>
        <linearGradient id="paint19_linear_233_1932" x1="77.3291" y1="11.6818" x2="78.5808" y2="11.6818" gradientUnits="userSpaceOnUse">
            <stop stop-color="#E1473D"/>
            <stop offset="1" stop-color="#E9605A"/>
        </linearGradient>
        <linearGradient id="paint20_linear_233_1932" x1="91.0166" y1="7.01783" x2="90.0091" y2="1.72841" gradientUnits="userSpaceOnUse">
            <stop stop-color="#FEBBBA"/>
            <stop offset="1" stop-color="#FF928E"/>
        </linearGradient>
        <linearGradient id="paint21_linear_233_1932" x1="88.6779" y1="-3.00589" x2="94.4516" y2="1.41188" gradientUnits="userSpaceOnUse">
            <stop stop-color="#FEBBBA"/>
            <stop offset="1" stop-color="#FF928E"/>
        </linearGradient>
        <linearGradient id="paint22_linear_233_1932" x1="94.5494" y1="-7.99427" x2="89.0674" y2="-0.936125" gradientUnits="userSpaceOnUse">
            <stop stop-color="#09005D"/>
            <stop offset="1" stop-color="#1A0F91"/>
        </linearGradient>
        <linearGradient id="paint23_linear_233_1932" x1="89.3253" y1="-3.88471" x2="95.0946" y2="0.529646" gradientUnits="userSpaceOnUse">
            <stop stop-color="#FEBBBA"/>
            <stop offset="1" stop-color="#FF928E"/>
        </linearGradient>
        <linearGradient id="paint24_linear_233_1932" x1="53.7041" y1="13.3345" x2="55.491" y2="13.3345" gradientUnits="userSpaceOnUse">
            <stop stop-color="#FF928E"/>
            <stop offset="1" stop-color="#FE7062"/>
        </linearGradient>
        <linearGradient id="paint25_linear_233_1932" x1="89.2508" y1="8.2731" x2="93.4443" y2="14.5633" gradientUnits="userSpaceOnUse">
            <stop stop-color="#FEBBBA"/>
            <stop offset="1" stop-color="#FF928E"/>
        </linearGradient>
        <linearGradient id="paint26_linear_233_1932" x1="91.7993" y1="18.557" x2="82.9292" y2="21.4662" gradientUnits="userSpaceOnUse">
            <stop stop-color="#09005D"/>
            <stop offset="1" stop-color="#1A0F91"/>
        </linearGradient>
        <linearGradient id="paint27_linear_233_1932" x1="73.8594" y1="16.9306" x2="67.9664" y2="23.1591" gradientUnits="userSpaceOnUse">
            <stop stop-color="#09005D"/>
            <stop offset="1" stop-color="#1A0F91"/>
        </linearGradient>
        <linearGradient id="paint28_linear_233_1932" x1="63.1071" y1="23.7485" x2="60.7154" y2="27.3502" gradientUnits="userSpaceOnUse">
            <stop stop-color="#4042E2"/>
            <stop offset="1" stop-color="#4F52FF"/>
        </linearGradient>
        <clipPath id="clip0_233_1932">
            <rect width="70" height="70" fill="white"/>
        </clipPath>
    </defs>
</svg>